{
.appVersion = "3342";
.formatVersion = 3;
DisplayStrings = (
"aäbcdefghijklmnoöpqrsßtuüvwxyz",
"mmmmmmmmmmnnmmoommammbmmcmmdmmemmfm
mgmmhmmimmjmmkmmlmmmmmnmmommbmmpmmpm
mqmmrmmsmmftmmummvmmwmmxmmymmzmmämmömmümmßmmAmmBmmCmmDmmEmmFmmGmmHmmImmJmmKmmLmmMmmNmmOmmPmmQmmRmmSmmTmmUmmVmmWmmXmmYmmZmmÄmmÖmmÜmmmm.mm,mm:mm;mm-mmmmmmmmmmmmmmmmmmmmmm1mm2mm3mm4mm5mm6mm7mm8mm9mm0mmenmmermmchmmdemmndmmiemmeimmtemminmmgemmunmmesmmhemmremmdimmnemmngmmstmmscmmismmbemmanmmsemmitmmssmmtimmicmmnammlimmuemmeinmmichmmndemmdiemmundmmdermmchemmendmmgenmmschmmchtmmdenmminemmngemmnunmmungmmdasmmhenmmindmmenwmmensmmiesmmstemmtenmmeremmlicmmachmmndimmssemmausmmersmmebemmerdmmenummnenmmraummistmmnicmmsenmmenemmndammtermmassmmenammvermmwirmmwiemmedemmesemmausmmbenmmbermmeitmmentmmestmmseimmandmmessmmannmmesimmgesmmnscmmnwimmteimmenimmigemmaenmmerammernmmrdemmrenmmtunmmingmmstammsiemmuermmegemmeckmmerummmmemmnermmndsmmnstmmrunmmsicmmennmminsmmmermmreimmeigmmengmmergmmertmmerzmmframmhremmheimmleimmneimmnaummsgemmttemmweimmabemmchdmmdesmmntemmrgemmtesmmunsmmvormmdem "
);
date = "2025-02-16 11:19:15 +0000";
familyName = OHamburgC;
featurePrefixes = (
{
automatic = 1;
code = "languagesystem DFLT dflt;
";
name = Languagesystems;
}
);
fontMaster = (
{
customParameters = (
{
name = unitizerUnit;
value = 6.38055;
}
);
guides = (
{
angle = 75;
pos = (266,-101);
}
);
iconName = SemiLight_SemiCondensed;
id = m003;
metricValues = (
{
over = 11;
pos = 637;
},
{
over = 11;
pos = 616;
},
{
over = 11;
pos = 402;
},
{
over = -8;
},
{
over = -8;
pos = -230;
},
{
pos = 17;
},
{
}
);
name = Italic;
stemValues = (
28,
81
);
userData = {
GSCornerRadius = 25;
GSOffsetHorizontal = 2;
GSOffsetVertical = 2;
};
}
);
glyphs = (
{
glyphname = A;
lastChange = "2025-02-19 10:22:13 +0000";
layers = (
{
anchors = (
{
name = bottom;
pos = (275,0);
},
{
name = ogonek;
pos = (552,10);
},
{
name = top;
pos = (463,616);
}
);
color = 4;
layerId = m003;
shapes = (
{
closed = 1;
nodes = (
(603,0,l),
(609,25,l),
(542,39,o),
(527,64,o),
(513,135,cs),
(485,306,o),
(457,477,o),
(429,648,c),
(372,576,l),
(359,550,l),
(421,139,ls),
(436,42,o),
(425,43,o),
(339,25,c),
(333,0,l)
);
},
{
closed = 1;
nodes = (
(189,0,l),
(195,25,l),
(121,31,o),
(99,57,o),
(143,130,cs),
(402,564,l),
(372,576,l),
(267,404,o),
(152,198,o),
(63,83,cs),
(36,49,o),
(-13,25,o),
(-57,25,c),
(-63,0,l)
);
},
{
closed = 1;
nodes = (
(447,258,l),
(442,298,l),
(219,298,l),
(193,258,l)
);
}
);
width = 671;
}
);
unicode = 65;
},
{
glyphname = B;
lastChange = "2025-02-20 20:21:06 +0000";
layers = (
{
anchors = (
{
name = bottom;
pos = (233,0);
},
{
name = center;
pos = (129,154);
},
{
name = top;
pos = (421,616);
}
);
color = 2;
guides = (
{
angle = 270;
pos = (-22,13);
}
);
layerId = m003;
shapes = (
{
closed = 1;
nodes = (
(-22,0,l),
(269,0,l),
(278,40,l),
(233,40,o),
(191,34,o),
(176,50,cs),
(168,58,o),
(162,73,o),
(166,91,cs),
(216,307,o),
(232,377,o),
(278,574,c),
(295,576,o),
(359,576,o),
(382,576,c),
(391,616,l),
(120,616,l),
(114,591,l),
(149,586,o),
(172,582,o),
(184,572,cs),
(192,565,o),
(194,552,o),
(188,525,cs),
(147,341,o),
(127,253,o),
(141,312,cs),
(155,373,o),
(133,282,o),
(88,91,cs),
(82,65,o),
(73,51,o),
(62,43,cs),
(43,29,o),
(17,31,o),
(-16,25,c)
);
},
{
closed = 1;
nodes = (
(210,318,o),
(222,318,o),
(250,318,cs),
(412,318,o),
(529,378,o),
(553,481,cs),
(571,560,o),
(504,616,o),
(391,616,c),
(382,576,l),
(443,576,o),
(475,529,o),
(460,462,cs),
(442,387,o),
(364,348,o),
(250,348,cs),
(190,348,l),
(184,318,l)
);
},
{
closed = 1;
nodes = (
(394,0,o),
(500,79,o),
(526,191,cs),
(547,280,o),
(474,333,o),
(354,338,cs),
(172,346,l),
(164,314,l),
(186,314,o),
(198,314,o),
(235,314,cs),
(370,314,o),
(452,263,o),
(430,171,cs),
(413,94,o),
(348,40,o),
(278,40,c),
(269,0,l)
);
}
);
width = 588;
}
);
metricLeft = H;
unicode = 66;
},
{
glyphname = C;
lastChange = "2025-02-19 10:22:13 +0000";
layers = (
{
anchors = (
{
name = bottom;
pos = (272,0);
},
{
name = top;
pos = (460,616);
}
);
background = {
shapes = (
{
closed = 1;
nodes = (
(338,588,l),
(434,588,o),
(504,528,o),
(509,444,c),
(540,444,l),
(542,495,o),
(549,558,o),
(556,595,c),
(506,614,o),
(412,627,o),
(330,627,c)
);
}
);
};
backgroundImage = {
imagePath = "../../Desktop/Bildschirmfoto 2024-12-24 um 08.52.09.png";
pos = (634,-952);
scale = (-1.4,1.4);
};
color = 4;
layerId = m003;
shapes = (
{
closed = 1;
nodes = (
(398,-11,o),
(496,9,o),
(559,38,c),
(592,106,o),
(624,174,o),
(634,201,c),
(598,200,l),
(552,102,o),
(430,33,o),
(332,33,cs),
(178,33,o),
(107,158,o),
(148,335,cs),
(182,482,o),
(325,588,o),
(474,588,cs),
(572,588,o),
(629,528,o),
(614,444,c),
(645,444,l),
(657,489,o),
(678,551,o),
(695,595,c),
(650,614,o),
(557,627,o),
(471,627,cs),
(264,627,o),
(91,496,o),
(48,312,cs),
(4,123,o),
(116,-11,o),
(323,-11,cs)
);
}
);
width = 665;
},
{
anchors = (
{
name = bottom;
pos = (408,0);
},
{
name = top;
pos = (407,616);
}
);
associatedMasterId = m003;
background = {
shapes = (
{
closed = 1;
nodes = (
(418,588,l),
(514,588,o),
(584,528,o),
(589,444,c),
(620,444,l),
(622,495,o),
(629,558,o),
(636,595,c),
(586,614,o),
(492,627,o),
(410,627,c)
);
}
);
};
backgroundImage = {
imagePath = "../../Desktop/Bildschirmfoto 2024-12-24 um 08.52.09.png";
pos = (714,-952);
scale = (-1.4,1.4);
};
color = 4;
layerId = "A8205263-60D0-4B63-B521-8F6B441CF343";
name = "11. Jan. 25, 13:19";
shapes = (
{
closed = 1;
nodes = (
(479,-11,o),
(572,9,o),
(628,38,c),
(646,106,o),
(662,174,o),
(666,201,c),
(630,200,l),
(606,102,o),
(520,33,o),
(422,33,cs),
(268,33,o),
(156,158,o),
(156,335,cs),
(156,482,o),
(265,586,o),
(414,586,cs),
(506,586,o),
(582,522,o),
(597,432,c),
(637,432,l),
(634,599,l),
(584,573,l),
(551,605,o),
(477,627,o),
(404,627,cs),
(197,627,o),
(54,496,o),
(54,312,cs),
(54,123,o),
(197,-11,o),
(404,-11,cs)
);
}
);
width = 720;
}
);
metricLeft = O;
metricRight = H;
unicode = 67;
},
{
glyphname = D;
lastChange = "2025-02-19 10:22:13 +0000";
layers = (
{
anchors = (
{
name = bottom;
pos = (294,0);
},
{
name = center;
pos = (206,308);
},
{
name = top;
pos = (482,616);
}
);
background = {
shapes = (
{
closed = 1;
nodes = (
(-22,0,l),
(261,0,l),
(261,40,l),
(216,40,o),
(181,38,o),
(162,54,cs),
(153,62,o),
(148,73,o),
(148,91,cs),
(146,307,o),
(145,377,o),
(149,574,c),
(166,576,o),
(218,576,o),
(241,576,c),
(241,616,l),
(-22,616,l),
(-22,591,l),
(12,581,o),
(36,582,o),
(50,572,cs),
(60,565,o),
(65,552,o),
(65,525,cs),
(66,341,o),
(67,253,o),
(67,312,cs),
(67,373,o),
(66,282,o),
(65,91,cs),
(65,65,o),
(59,51,o),
(50,43,cs),
(34,29,o),
(8,31,o),
(-22,25,c)
);
}
);
};
backgroundImage = {
imagePath = "../../Desktop/Bildschirmfoto 2024-12-24 um 13.06.05.png";
pos = (717,-1011);
scale = (-1.4,1.4);
};
color = 2;
layerId = m003;
shapes = (
{
closed = 1;
nodes = (
(-22,0,l),
(1,0,o),
(63,0,o),
(105,0,cs),
(105,0,o),
(146,1,o),
(263,-3,c),
(267,38,l),
(215,38,o),
(195,33,o),
(177,55,cs),
(170,63,o),
(167,74,o),
(171,91,cs),
(194,189,o),
(260,476,o),
(284,574,c),
(330,577,o),
(382,578,o),
(428,578,c),
(434,619,l),
(353,618,o),
(290,616,o),
(250,616,c),
(204,616,o),
(151,616,o),
(120,616,c),
(114,590,l),
(151,583,o),
(173,582,o),
(184,572,cs),
(193,565,o),
(194,552,o),
(188,525,cs),
(163,411,o),
(144,323,o),
(141,312,cs),
(139,302,o),
(116,210,o),
(88,91,cs),
(82,66,o),
(74,52,o),
(62,43,cs),
(45,31,o),
(20,30,o),
(-16,25,c)
);
},
{
closed = 1;
nodes = (
(263,-3,l),
(465,-2,o),
(639,135,o),
(683,327,cs),
(723,498,o),
(620,619,o),
(434,619,c),
(428,578,l),
(569,578,o),
(622,462,o),
(584,298,cs),
(549,146,o),
(406,38,o),
(267,38,c)
);
}
);
width = 709;
}
);
metricLeft = H;
metricRight = O;
unicode = 68;
},
{
glyphname = E;
lastChange = "2025-02-19 10:22:13 +0000";
layers = (
{
anchors = (
{
name = bottom;
pos = (219,0);
},
{
name = ogonek;
pos = (452,10);
},
{
name = top;
pos = (407,616);
},
{
name = topleft;
pos = (139,616);
}
);
color = 2;
guides = (
{
angle = 77.035;
lockAngle = 1;
pos = (52,-67);
}
);
layerId = m003;
shapes = (
{
closed = 1;
nodes = (
(4,-1,o),
(52,0,o),
(97,0,c),
(240,0,o),
(398,-1,o),
(474,-3,c),
(497,44,o),
(522,110,o),
(535,157,c),
(506,157,l),
(479,90,o),
(429,43,o),
(385,40,cs),
(353,38,o),
(289,37,o),
(232,37,cs),
(198,37,o),
(183,42,o),
(174,52,cs),
(166,62,o),
(167,76,o),
(171,96,cs),
(210,265,o),
(244,416,o),
(283,576,c),
(320,578,o),
(349,578,o),
(371,578,cs),
(399,578,o),
(434,578,o),
(466,576,cs),
(491,574,o),
(507,544,o),
(504,499,c),
(538,499,l),
(548,536,o),
(564,586,o),
(579,619,c),
(513,617,o),
(370,616,o),
(249,616,c),
(200,616,o),
(148,617,o),
(120,618,c),
(113,589,l),
(147,584,o),
(170,581,o),
(182,567,cs),
(189,558,o),
(192,544,o),
(186,521,c),
(87,91,l),
(81,67,o),
(73,52,o),
(61,42,cs),
(44,29,o),
(20,26,o),
(-18,23,c),
(-23,-2,l)
);
},
{
closed = 1;
nodes = (
(405,206,l),
(415,272,o),
(436,364,o),
(456,430,c),
(430,430,l),
(428,424,o),
(420,410,o),
(411,396,c),
(386,360,o),
(358,336,o),
(298,336,cs),
(168,336,l),
(158,296,l),
(288,296,ls),
(355,296,o),
(372,274,o),
(377,242,cs),
(380,206,l)
);
}
);
width = 560;
}
);
metricLeft = H;
metricRight = H;
unicode = 69;
},
{
glyphname = F;
lastChange = "2025-02-19 10:22:13 +0000";
layers = (
{
anchors = (
{
name = bottom;
pos = (191,0);
},
{
name = top;
pos = (379,616);
}
);
background = {
shapes = (
{
closed = 1;
nodes = (
(-24,0,l),
(259,0,l),
(259,40,l),
(214,40,o),
(179,38,o),
(160,54,cs),
(151,62,o),
(146,73,o),
(146,91,cs),
(144,307,o),
(143,377,o),
(147,574,c),
(164,576,o),
(216,576,o),
(239,576,c),
(239,616,l),
(-24,616,l),
(-24,591,l),
(10,581,o),
(34,582,o),
(48,572,cs),
(58,565,o),
(63,552,o),
(63,525,cs),
(64,341,o),
(65,253,o),
(65,312,cs),
(65,373,o),
(64,282,o),
(63,91,cs),
(63,65,o),
(57,51,o),
(48,43,cs),
(32,29,o),
(6,31,o),
(-24,25,c)
);
}
);
};
color = 2;
layerId = m003;
shapes = (
{
closed = 1;
nodes = (
(3,0,o),
(209,0,o),
(264,0,c),
(271,29,l),
(220,35,o),
(187,35,o),
(173,54,cs),
(167,64,o),
(165,79,o),
(171,103,cs),
(205,260,o),
(243,421,o),
(282,578,c),
(304,579,o),
(353,580,o),
(375,580,cs),
(403,580,o),
(425,580,o),
(456,578,cs),
(481,576,o),
(496,544,o),
(493,499,c),
(525,499,l),
(536,536,o),
(554,586,o),
(569,619,c),
(503,617,o),
(368,616,o),
(248,616,c),
(199,616,o),
(148,617,o),
(120,618,c),
(114,592,l),
(147,586,o),
(170,584,o),
(182,572,cs),
(189,563,o),
(192,550,o),
(186,525,cs),
(155,380,o),
(121,236,o),
(86,91,cs),
(80,67,o),
(73,53,o),
(62,44,cs),
(46,30,o),
(22,27,o),
(-19,23,c),
(-24,-1,l)
);
},
{
closed = 1;
nodes = (
(399,206,l),
(408,272,o),
(429,364,o),
(450,430,c),
(425,430,l),
(423,424,o),
(415,410,o),
(406,396,c),
(381,360,o),
(353,336,o),
(311,336,cs),
(177,336,l),
(167,296,l),
(301,296,ls),
(350,296,o),
(367,274,o),
(372,242,cs),
(375,206,l)
);
}
);
width = 504;
}
);
metricLeft = H;
metricRight = O;
unicode = 70;
},
{
glyphname = G;
lastChange = "2025-02-19 10:22:13 +0000";
layers = (
{
anchors = (
{
name = bottom;
pos = (285,0);
},
{
name = top;
pos = (473,616);
}
);
backgroundImage = {
imagePath = "../../Desktop/Bildschirmfoto 2024-12-23 um 19.38.00.png";
pos = (635,-876);
scale = (-1.37,1.3692);
};
color = 3;
layerId = m003;
shapes = (
{
closed = 1;
nodes = (
(407,-11,o),
(514,11,o),
(576,43,c),
(575,56,l),
(557,57,o),
(549,67,o),
(552,79,c),
(580,200,l),
(586,225,o),
(604,247,o),
(628,252,c),
(666,258,l),
(672,287,l),
(420,287,l),
(412,253,l),
(463,244,o),
(503,225,o),
(494,188,c),
(469,76,l),
(464,55,o),
(404,33,o),
(359,33,cs),
(177,33,o),
(104,141,o),
(148,333,cs),
(182,482,o),
(321,588,o),
(476,588,cs),
(572,588,o),
(628,528,o),
(614,444,c),
(645,444,l),
(658,495,o),
(680,558,o),
(695,595,c),
(650,614,o),
(559,627,o),
(477,627,cs),
(272,627,o),
(90,495,o),
(47,308,cs),
(4,121,o),
(122,-11,o),
(323,-11,cs)
);
}
);
width = 692;
}
);
metricLeft = O;
metricRight = O;
unicode = 71;
},
{
glyphname = H;
lastChange = "2025-02-19 10:22:13 +0000";
layers = (
{
anchors = (
{
name = bottom;
pos = (324,0);
},
{
name = center;
pos = (465,462);
},
{
name = top;
pos = (512,616);
},
{
name = topleft;
pos = (139,616);
}
);
background = {
shapes = (
{
closed = 1;
nodes = (
(138,609,l,{
"Letterink-NibData" = {
AngleInDegrees = "0";
};
}),
(134,616,l,{
"Letterink-NibData" = {
AngleInDegrees = "360";
};
}),
(65,576,l),
(65,7,l,{
"Letterink-NibData" = {
AngleInDegrees = "360";
};
}),
(69,0,l,{
"Letterink-NibData" = {
AngleInDegrees = "360";
};
}),
(138,40,l),
(138,304,l),
(552,304,l),
(552,7,l,{
"Letterink-NibData" = {
AngleInDegrees = "360";
};
}),
(556,0,l,{
"Letterink-NibData" = {
AngleInDegrees = "360";
};
}),
(626,40,l),
(626,609,l,{
"Letterink-NibData" = {
AngleInDegrees = "0";
};
}),
(622,616,l,{
"Letterink-NibData" = {
AngleInDegrees = "359.99999";
};
}),
(552,576,l),
(552,351,l),
(138,351,l)
);
},
{
closed = 0;
nodes = (
(210,616,l),
(210,591,l),
(182,583,o),
(164,576,o),
(153,564,cs),
(144,553,o),
(140,538,o),
(140,512,cs)
);
}
);
};
color = 1;
layerId = m003;
shapes = (
{
closed = 1;
nodes = (
(68,2,o),
(158,2,o),
(248,0,c),
(254,25,l),
(225,33,o),
(183,39,o),
(175,51,cs),
(167,61,o),
(166,77,o),
(172,104,cs),
(188,178,o),
(205,252,o),
(221,326,cs),
(235,388,o),
(251,450,o),
(266,512,cs),
(272,539,o),
(282,556,o),
(293,565,cs),
(307,577,o),
(352,583,o),
(384,591,c),
(390,616,l),
(300,614,o),
(210,614,o),
(120,616,c),
(114,591,l),
(135,583,o),
(176,576,o),
(184,564,cs),
(191,553,o),
(191,538,o),
(185,512,cs),
(172,450,o),
(159,389,o),
(144,327,cs),
(127,253,o),
(109,178,o),
(91,104,cs),
(85,78,o),
(78,63,o),
(66,52,cs),
(52,40,o),
(8,33,o),
(-16,25,c),
(-22,0,l)
);
},
{
closed = 1;
nodes = (
(518,2,o),
(608,2,o),
(698,0,c),
(704,25,l),
(685,33,o),
(644,39,o),
(636,51,cs),
(628,61,o),
(627,77,o),
(633,104,cs),
(649,179,o),
(667,255,o),
(683,330,cs),
(696,391,o),
(712,451,o),
(727,512,cs),
(733,539,o),
(741,554,o),
(754,565,cs),
(768,577,o),
(812,583,o),
(834,591,c),
(840,616,l),
(750,614,o),
(660,614,o),
(570,616,c),
(564,591,l),
(595,583,o),
(637,576,o),
(645,564,cs),
(652,553,o),
(652,538,o),
(646,512,cs),
(633,451,o),
(620,390,o),
(606,329,cs),
(589,254,o),
(570,179,o),
(552,104,cs),
(546,78,o),
(539,63,o),
(527,52,cs),
(513,40,o),
(468,33,o),
(434,25,c),
(428,0,l)
);
},
{
closed = 1;
nodes = (
(631,304,l),
(642,349,l),
(195,349,l),
(184,304,l)
);
}
);
width = 770;
}
);
note = H;
unicode = 72;
},
{
glyphname = I;
lastChange = "2025-02-19 10:22:13 +0000";
layers = (
{
anchors = (
{
name = bottom;
pos = (90,0);
},
{
name = ogonek;
pos = (220,10);
},
{
name = top;
pos = (278,616);
},
{
name = topleft;
pos = (139,616);
}
);
color = 1;
layerId = m003;
shapes = (
{
closed = 1;
nodes = (
(-22,0,l),
(230,0,l),
(236,25,l),
(198,31,o),
(175,32,o),
(165,41,cs),
(156,49,o),
(156,63,o),
(162,91,c),
(262,525,l),
(269,555,o),
(282,570,o),
(298,577,cs),
(317,586,o),
(341,586,o),
(366,591,c),
(372,616,l),
(120,616,l),
(115,593,l),
(151,587,o),
(174,586,o),
(185,575,cs),
(193,566,o),
(194,552,o),
(188,525,c),
(88,91,l),
(81,62,o),
(74,47,o),
(62,39,cs),
(44,27,o),
(20,30,o),
(-16,25,c)
);
}
);
width = 302;
}
);
metricLeft = H;
metricRight = H;
note = I;
unicode = 73;
},
{
glyphname = J;
lastChange = "2025-02-19 10:22:13 +0000";
layers = (
{
anchors = (
{
name = bottom;
pos = (75,0);
},
{
name = top;
pos = (263,616);
}
);
color = 1;
layerId = m003;
shapes = (
{
closed = 1;
nodes = (
(-60,-232,o),
(5,-190,o),
(29,-164,cs),
(92,-96,o),
(154,29,o),
(179,148,cs),
(222,341,o),
(220,332,o),
(266,525,cs),
(273,555,o),
(281,569,o),
(296,577,cs),
(312,584,o),
(335,585,o),
(370,591,c),
(376,616,l),
(124,616,l),
(118,591,l),
(153,587,o),
(176,586,o),
(189,574,cs),
(197,565,o),
(199,551,o),
(193,525,cs),
(91,81,ls),
(80,33,o),
(51,-90,o),
(9,-138,cs),
(-1,-150,o),
(-12,-157,o),
(-24,-157,cs),
(-43,-158,o),
(-40,-135,o),
(-59,-134,cs),
(-92,-134,o),
(-122,-163,o),
(-131,-205,cs),
(-135,-220,o),
(-120,-232,o),
(-94,-232,cs)
);
}
);
width = 272;
}
);
metricLeft = H;
metricRight = H;
unicode = 74;
},
{
glyphname = K;
lastChange = "2025-02-19 10:22:13 +0000";
layers = (
{
anchors = (
{
name = bottom;
pos = (250,0);
},
{
name = top;
pos = (438,616);
}
);
background = {
shapes = (
{
closed = 0;
nodes = (
(429,91,l),
(429,55,o),
(423,41,o),
(402,31,cs),
(391,26,o),
(373,25,o),
(346,18,c),
(346,0,l),
(591,0,l),
(591,18,l),
(545,31,o),
(522,33,o),
(513,51,cs),
(509,60,o),
(507,73,o),
(507,91,c)
);
},
{
closed = 0;
nodes = (
(451,525,l),
(451,561,o),
(457,575,o),
(478,585,cs),
(489,590,o),
(507,591,o),
(534,598,c),
(534,616,l),
(289,616,l),
(289,598,l),
(335,585,o),
(358,583,o),
(367,565,cs),
(371,556,o),
(373,543,o),
(373,525,cs)
);
}
);
};
color = 2;
layerId = m003;
shapes = (
{
closed = 1;
nodes = (
(-22,0,l),
(230,0,l),
(234,18,l),
(201,27,o),
(182,29,o),
(172,36,cs),
(162,44,o),
(157,58,o),
(165,91,cs),
(179,156,o),
(242,424,o),
(266,525,cs),
(273,556,o),
(283,572,o),
(298,581,cs),
(313,590,o),
(335,594,o),
(368,598,c),
(372,616,l),
(120,616,l),
(115,592,l),
(164,585,o),
(187,583,o),
(191,565,cs),
(193,556,o),
(192,543,o),
(188,525,cs),
(157,382,o),
(123,234,o),
(88,91,cs),
(82,66,o),
(74,52,o),
(62,44,cs),
(46,33,o),
(22,33,o),
(-16,25,c)
);
},
{
closed = 1;
nodes = (
(493,503,l),
(538,540,o),
(591,574,o),
(621,586,cs),
(637,592,o),
(668,597,o),
(674,598,c),
(678,616,l),
(444,616,l),
(440,598,l),
(463,593,o),
(484,580,o),
(479,557,cs),
(475,543,o),
(462,526,o),
(440,505,c),
(160,267,l),
(176,240,l)
);
},
{
closed = 1;
nodes = (
(594,18,l),
(535,34,o),
(507,48,o),
(469,99,c),
(295,362,l),
(222,301,l),
(275,217,o),
(370,72,o),
(391,40,cs),
(413,8,o),
(436,-4,o),
(479,-3,cs),
(590,0,l)
);
}
);
width = 622;
}
);
metricLeft = H;
unicode = 75;
},
{
glyphname = L;
lastChange = "2025-02-19 10:22:13 +0000";
layers = (
{
anchors = (
{
name = bottom;
pos = (236,0);
},
{
name = center;
pos = (330,308);
},
{
name = top;
pos = (424,616);
},
{
name = topright;
pos = (708,616);
}
);
color = 2;
layerId = m003;
shapes = (
{
closed = 1;
nodes = (
(-25,-3,l),
(66,-1,o),
(146,0,o),
(226,0,c),
(235,41,l),
(174,43,o),
(157,43,o),
(171,105,cs),
(199,234,o),
(217,318,o),
(266,517,cs),
(275,553,o),
(280,567,o),
(303,577,cs),
(315,582,o),
(334,585,o),
(364,588,c),
(370,616,l),
(120,616,l),
(115,592,l),
(149,587,o),
(171,585,o),
(182,576,cs),
(191,568,o),
(192,554,o),
(186,525,cs),
(156,382,o),
(121,234,o),
(85,91,cs),
(78,63,o),
(71,49,o),
(59,40,cs),
(44,30,o),
(22,29,o),
(-19,23,c)
);
},
{
closed = 1;
nodes = (
(288,2,o),
(399,1,o),
(467,-3,c),
(528,102,o),
(575,177,o),
(575,177,c),
(551,189,l),
(489,98,o),
(397,47,o),
(324,45,c),
(280,44,o),
(256,41,o),
(235,41,c),
(226,0,l)
);
}
);
width = 593;
}
);
metricLeft = H;
metricRight = H;
unicode = 76;
},
{
glyphname = M;
lastChange = "2025-02-19 10:22:13 +0000";
layers = (
{
anchors = (
{
name = bottom;
pos = (369,0);
},
{
name = top;
pos = (557,616);
}
);
backgroundImage = {
imagePath = "../../Desktop/Bildschirmfoto 2024-12-24 um 15.40.08.png";
pos = (787,-1015);
scale = (-1.3983,1.4017);
};
color = 1;
layerId = m003;
shapes = (
{
closed = 1;
nodes = (
(779,586,l),
(756,616,l),
(386,107,l),
(406,117,l),
(297,616,l),
(120,616,l),
(114,591,l),
(162,587,ls),
(190,584,o),
(215,565,o),
(221,540,cs),
(343,-16,l)
);
},
{
closed = 1;
nodes = (
(194,0,l),
(200,25,l),
(166,33,o),
(119,40,o),
(111,52,cs),
(105,63,o),
(103,79,o),
(110,105,cs),
(236,561,l),
(202,591,l),
(70,105,ls),
(63,78,o),
(54,60,o),
(43,51,cs),
(29,39,o),
(-9,33,o),
(-34,25,c),
(-40,0,l)
);
},
{
closed = 1;
nodes = (
(788,0,l),
(794,25,l),
(756,33,o),
(733,41,o),
(726,51,cs),
(715,65,o),
(720,82,o),
(725,104,cs),
(749,216,o),
(790,401,o),
(819,529,cs),
(823,544,o),
(829,556,o),
(841,566,cs),
(855,578,o),
(875,586,o),
(906,591,c),
(912,616,l),
(756,616,l),
(645,104,ls),
(639,80,o),
(636,63,o),
(620,50,cs),
(600,34,o),
(561,27,o),
(542,25,c),
(536,0,l)
);
}
);
width = 860;
}
);
metricLeft = H;
metricRight = H;
unicode = 77;
},
{
glyphname = N;
lastChange = "2025-02-19 10:22:13 +0000";
layers = (
{
anchors = (
{
name = bottom;
pos = (304,0);
},
{
name = top;
pos = (492,616);
}
);
color = 1;
layerId = m003;
shapes = (
{
closed = 1;
nodes = (
(605,-11,l),
(644,157,o),
(710,443,o),
(726,512,c),
(686,512,l),
(590,97,l),
(612,106,l),
(251,616,l),
(120,616,l),
(114,591,l),
(137,587,o),
(156,579,o),
(167,566,cs),
(182,548,o),
(208,514,o),
(208,514,c),
(579,-11,l)
);
},
{
closed = 1;
nodes = (
(212,0,l),
(218,25,l),
(182,28,o),
(143,35,o),
(133,52,cs),
(124,68,o),
(126,78,o),
(132,104,c),
(92,104,l),
(86,77,o),
(82,65,o),
(65,51,cs),
(44,34,o),
(7,33,o),
(-16,25,c),
(-22,0,l)
);
},
{
closed = 1;
nodes = (
(132,104,l),
(238,561,l),
(204,591,l),
(92,104,l)
);
},
{
closed = 1;
nodes = (
(726,512,l),
(733,542,o),
(742,558,o),
(756,567,cs),
(770,577,o),
(791,581,o),
(816,588,c),
(822,616,l),
(606,616,l),
(600,591,l),
(645,584,o),
(671,582,o),
(683,568,cs),
(692,557,o),
(693,541,o),
(686,512,c)
);
}
);
width = 729;
}
);
metricLeft = H;
metricRight = H;
unicode = 78;
},
{
glyphname = O;
lastChange = "2025-02-19 10:22:13 +0000";
layers = (
{
anchors = (
{
name = bottom;
pos = (302,0);
},
{
name = center;
pos = (396,308);
},
{
name = ogonek;
pos = (602,10);
},
{
name = top;
pos = (490,616);
},
{
name = topleft;
pos = (139,616);
},
{
name = topright;
pos = (841,616);
}
);
background = {
shapes = (
{
closed = 1;
nodes = (
(566,111,o),
(621,209,o),
(624,323,c,{
"Letterink-NibData" = {
AngleInDegrees = "359.99999";
};
}),
(621,395,o),
(610,434,o),
(580,483,cs,{
"Letterink-NibData" = {
AngleInDegrees = "0";
};
}),
(519,582,o),
(433,633,o),
(329,633,cs),
(280,633,o),
(232,621,o),
(191,597,cs,{
"Letterink-NibData" = {
AngleInDegrees = "359.99999";
};
}),
(121,557,ls,{
"Letterink-NibData" = {
AngleInDegrees = "359.99999";
};
}),
(95,542,o),
(43,495,o),
(26,471,cs,{
"Letterink-NibData" = {
AngleInDegrees = "360";
};
}),
(-14,415,o),
(-32,359,o),
(-32,290,cs),
(-32,121,o),
(103,-21,o),
(263,-21,cs),
(312,-21,o),
(364,-7,o),
(408,19,cs,{
"Letterink-NibData" = {
AngleInDegrees = "360";
};
}),
(477,59,ls,{
"Letterink-NibData" = {
AngleInDegrees = "0";
};
})
);
},
{
closed = 1;
nodes = (
(402,32,o),
(370,26,o),
(329,26,cs),
(255,26,o),
(172,61,o),
(127,111,cs,{
"Letterink-NibData" = {
AngleInDegrees = "360";
};
}),
(115,123,o),
(102,141,o),
(82,168,c,{
"Letterink-NibData" = {
AngleInDegrees = "359.99999";
};
}),
(51,236,o),
(41,271,o),
(41,323,cs),
(41,425,o),
(79,501,o),
(163,566,c,{
"Letterink-NibData" = {
AngleInDegrees = "0";
};
}),
(205,583,o),
(221,586,o),
(263,586,cs),
(368,586,o),
(449,538,o),
(513,438,c,{
"Letterink-NibData" = {
AngleInDegrees = "359.99999";
};
}),
(540,389,o),
(551,347,o),
(551,289,cs,{
"Letterink-NibData" = {
AngleInDegrees = "359.99999";
};
}),
(549,192,o),
(506,102,o),
(435,47,c,{
"Letterink-NibData" = {
AngleInDegrees = "0";
};
})
);
}
);
};
color = 4;
layerId = m003;
shapes = (
{
closed = 1;
nodes = (
(489,-11,o),
(652,121,o),
(695,308,cs),
(738,494,o),
(637,626,o),
(442,626,cs),
(259,626,o),
(90,494,o),
(47,308,cs),
(4,121,o),
(111,-11,o),
(294,-11,cs)
);
},
{
closed = 1;
nodes = (
(181,474,o),
(318,585,o),
(435,585,cs),
(584,585,o),
(636,466,o),
(597,298,cs),
(561,141,o),
(430,30,o),
(301,30,cs),
(165,30,o),
(106,149,o),
(145,318,cs)
);
}
);
width = 726;
}
);
note = O;
unicode = 79;
},
{
glyphname = P;
lastChange = "2025-02-19 10:22:13 +0000";
layers = (
{
anchors = (
{
name = bottom;
pos = (207,0);
},
{
name = top;
pos = (395,616);
}
);
background = {
anchors = (
{
name = bottom;
pos = (255,0);
},
{
name = center;
pos = (113,154);
},
{
name = top;
pos = (255,616);
}
);
shapes = (
{
closed = 1;
nodes = (
(-5,0,l),
(278,0,l),
(278,40,l),
(233,40,o),
(198,38,o),
(179,54,cs),
(170,62,o),
(165,73,o),
(165,91,cs),
(163,307,o),
(162,377,o),
(166,574,c),
(183,576,o),
(235,576,o),
(258,576,c),
(258,616,l),
(-5,616,l),
(-5,591,l),
(29,581,o),
(53,582,o),
(67,572,cs),
(77,565,o),
(82,552,o),
(82,525,cs),
(83,341,o),
(84,253,o),
(84,312,cs),
(84,373,o),
(83,282,o),
(82,91,cs),
(82,65,o),
(76,51,o),
(67,43,cs),
(51,29,o),
(25,31,o),
(-5,25,c)
);
},
{
closed = 1;
nodes = (
(152,318,o),
(164,318,o),
(192,318,cs),
(348,318,o),
(451,378,o),
(451,481,cs),
(451,560,o),
(371,616,o),
(258,616,c),
(258,576,l),
(319,576,o),
(362,529,o),
(362,462,cs),
(362,387,o),
(293,348,o),
(185,348,cs),
(125,348,l),
(126,318,l)
);
}
);
};
color = 2;
layerId = m003;
shapes = (
{
closed = 1;
nodes = (
(271,271,o),
(281,271,o),
(291,271,cs),
(420,271,o),
(523,337,o),
(548,448,cs),
(572,552,o),
(511,620,o),
(399,618,c),
(372,584,l),
(446,584,o),
(481,528,o),
(460,436,cs),
(439,346,o),
(364,295,o),
(265,295,c),
(260,272,l)
);
},
{
closed = 1;
nodes = (
(265,0,l),
(271,25,l),
(222,36,o),
(202,39,o),
(193,51,cs),
(185,61,o),
(186,78,o),
(193,111,cs),
(208,188,o),
(252,379,o),
(303,583,c),
(372,584,l),
(399,618,l),
(359,617,o),
(298,616,o),
(266,616,c),
(227,616,o),
(162,617,o),
(120,618,c),
(113,587,l),
(156,580,o),
(185,576,o),
(197,556,cs),
(205,545,o),
(207,531,o),
(201,507,cs),
(171,369,o),
(140,235,o),
(107,101,cs),
(101,75,o),
(94,60,o),
(82,49,cs),
(68,35,o),
(25,30,o),
(1,25,c),
(-5,0,l)
);
}
);
width = 536;
}
);
metricLeft = H;
metricRight = O;
unicode = 80;
},
{
glyphname = Q;
lastChange = "2025-02-19 10:22:13 +0000";
layers = (
{
anchors = (
{
name = bottom;
pos = (302,0);
},
{
name = top;
pos = (490,616);
}
);
background = {
shapes = (
{
closed = 1;
nodes = (
(487,-11,o),
(622,121,o),
(622,308,cs),
(622,494,o),
(487,626,o),
(296,626,cs),
(107,626,o),
(-26,494,o),
(-26,308,cs),
(-26,121,o),
(107,-11,o),
(296,-11,cs)
);
},
{
closed = 1;
nodes = (
(70,471,o),
(157,585,o),
(279,585,cs),
(424,585,o),
(526,463,o),
(526,298,cs),
(526,144,o),
(438,30,o),
(313,30,cs),
(171,30,o),
(70,152,o),
(70,318,cs)
);
},
{
closed = 1;
nodes = (
(487,-11,o),
(622,121,o),
(622,308,cs),
(622,494,o),
(487,626,o),
(296,626,cs),
(107,626,o),
(-26,494,o),
(-26,308,cs),
(-26,121,o),
(107,-11,o),
(296,-11,cs)
);
},
{
closed = 1;
nodes = (
(70,471,o),
(157,585,o),
(279,585,cs),
(424,585,o),
(526,463,o),
(526,298,cs),
(526,144,o),
(438,30,o),
(313,30,cs),
(171,30,o),
(70,152,o),
(70,318,cs)
);
}
);
};
backgroundImage = {
imagePath = "../../Desktop/Bildschirmfoto 2024-12-24 um 15.25.09.png";
pos = (885,-1126);
scale = (-1.4,1.4);
};
color = 4;
layerId = m003;
shapes = (
{
closed = 1;
nodes = (
(488,-11,o),
(652,121,o),
(695,308,cs),
(738,494,o),
(636,626,o),
(448,626,cs),
(256,626,o),
(90,494,o),
(47,308,cs),
(4,121,o),
(108,-11,o),
(300,-11,cs)
);
},
{
closed = 1;
nodes = (
(181,474,o),
(313,584,o),
(435,584,cs),
(580,584,o),
(636,466,o),
(597,298,cs),
(561,141,o),
(429,30,o),
(307,30,cs),
(162,30,o),
(106,149,o),
(145,318,cs)
);
},
{
closed = 1;
nodes = (
(498,-232,o),
(681,-232,cs),
(807,-232,o),
(932,-202,o),
(1018,-153,c),
(1011,-133,l),
(930,-163,o),
(838,-179,o),
(750,-179,cs),
(584,-179,o),
(436,-98,o),
(387,29,c),
(256,11,l),
(319,-144,o)
);
}
);
width = 726;
}
);
metricLeft = O;
metricWidth = O;
unicode = 81;
},
{
glyphname = R;
lastChange = "2025-02-19 10:22:13 +0000";
layers = (
{
anchors = (
{
name = bottom;
pos = (249,0);
},
{
name = top;
pos = (437,616);
}
);
background = {
shapes = (
{
closed = 1;
nodes = (
(-24,0,l),
(259,0,l),
(259,40,l),
(214,40,o),
(179,38,o),
(160,54,cs),
(151,62,o),
(146,73,o),
(146,91,cs),
(144,307,o),
(143,377,o),
(147,574,c),
(164,576,o),
(216,576,o),
(239,576,c),
(239,616,l),
(-24,616,l),
(-24,591,l),
(10,581,o),
(34,582,o),
(48,572,cs),
(58,565,o),
(63,552,o),
(63,525,cs),
(64,341,o),
(65,253,o),
(65,312,cs),
(65,373,o),
(64,282,o),
(63,91,cs),
(63,65,o),
(57,51,o),
(48,43,cs),
(32,29,o),
(6,31,o),
(-24,25,c)
);
}
);
};
color = 2;
layerId = m003;
shapes = (
{
closed = 1;
nodes = (
(368,282,o),
(502,354,o),
(526,458,cs),
(547,550,o),
(480,620,o),
(372,618,c),
(343,576,l),
(413,576,o),
(455,526,o),
(437,446,cs),
(418,362,o),
(328,322,o),
(212,322,c),
(203,282,l)
);
},
{
closed = 1;
nodes = (
(246,0,l),
(252,27,l),
(214,31,o),
(178,41,o),
(170,53,cs),
(163,63,o),
(164,79,o),
(170,106,cs),
(232,374,o),
(250,454,o),
(282,574,c),
(343,576,l),
(372,618,l),
(322,617,o),
(294,616,o),
(245,616,c),
(206,615,o),
(165,617,o),
(120,618,c),
(114,592,l),
(147,585,o),
(177,579,o),
(185,567,cs),
(191,556,o),
(189,538,o),
(183,512,cs),
(154,376,o),
(122,238,o),
(89,104,cs),
(81,69,o),
(73,53,o),
(60,44,cs),
(46,34,o),
(25,32,o),
(-18,25,c),
(-24,0,l)
);
},
{
closed = 1;
nodes = (
(592,18,l),
(522,26,o),
(430,156,o),
(376,337,c),
(292,305,l),
(335,123,o),
(413,-5,o),
(485,-3,cs),
(588,0,l)
);
}
);
width = 620;
}
);
metricLeft = H;
unicode = 82;
},
{
glyphname = S;
lastChange = "2025-02-19 10:22:13 +0000";
layers = (
{
anchors = (
{
name = bottom;
pos = (167,0);
},
{
name = top;
pos = (355,616);
}
);
color = 4;
layerId = m003;
shapes = (
{
closed = 1;
nodes = (
(272,-9,o),
(379,69,o),
(404,176,cs),
(442,341,o),
(135,354,o),
(170,492,cs),
(183,545,o),
(247,581,o),
(315,581,cs),
(390,581,o),
(412,517,o),
(392,453,c),
(431,453,l),
(442,508,o),
(459,576,o),
(467,593,c),
(421,611,o),
(356,624,o),
(315,624,cs),
(202,624,o),
(112,550,o),
(88,446,cs),
(48,272,o),
(353,279,o),
(320,136,cs),
(306,75,o),
(226,33,o),
(145,35,cs),
(71,37,o),
(47,104,o),
(70,197,c),
(29,197,l),
(26,171,o),
(12,104,o),
(-5,36,c),
(54,10,o),
(116,-9,o),
(145,-9,cs)
);
}
);
width = 455;
}
);
metricLeft = O;
metricRight = O;
unicode = 83;
},
{
glyphname = T;
lastChange = "2025-02-19 10:22:13 +0000";
layers = (
{
anchors = (
{
name = bottom;
pos = (248,0);
},
{
name = center;
pos = (342,308);
},
{
name = top;
pos = (436,616);
}
);
background = {
shapes = (
{
closed = 1;
nodes = (
(161,0,l),
(406,0,l),
(406,18,l),
(360,31,o),
(337,33,o),
(328,52,cs),
(324,60,o),
(323,73,o),
(323,91,cs),
(322,164,o),
(322,237,o),
(321,310,cs),
(320,382,o),
(322,453,o),
(323,525,cs),
(323,561,o),
(329,575,o),
(350,585,cs),
(361,590,o),
(379,591,o),
(406,598,c),
(406,616,l),
(161,616,l),
(161,598,l),
(207,585,o),
(230,583,o),
(239,565,cs),
(243,556,o),
(245,543,o),
(245,525,cs),
(246,454,o),
(247,383,o),
(247,312,cs),
(247,238,o),
(246,165,o),
(245,91,cs),
(245,55,o),
(238,42,o),
(217,32,cs),
(206,27,o),
(188,25,o),
(161,18,c)
);
}
);
};
color = 4;
layerId = m003;
shapes = (
{
closed = 1;
nodes = (
(435,0,l),
(441,28,l),
(370,42,o),
(327,46,o),
(337,100,cs),
(369,262,o),
(408,428,o),
(450,590,c),
(420,561,l),
(484,561,o),
(553,561,o),
(582,561,cs),
(618,561,o),
(664,559,o),
(643,447,c),
(683,451,l),
(697,515,o),
(707,579,o),
(710,643,c),
(698,643,l),
(637,616,l),
(480,613,o),
(327,613,o),
(185,616,c),
(146,653,l),
(137,648,l),
(109,581,o),
(88,515,o),
(70,448,c),
(109,446,l),
(141,561,o),
(176,561,o),
(240,561,cs),
(390,561,l),
(366,590,l),
(339,462,o),
(266,146,o),
(253,100,cs),
(240,54,o),
(196,41,o),
(117,28,c),
(111,0,l)
);
}
);
width = 618;
}
);
metricLeft = H;
metricRight = H;
unicode = 84;
},
{
glyphname = U;
lastChange = "2025-02-19 10:22:13 +0000";
layers = (
{
anchors = (
{
name = bottom;
pos = (267,0);
},
{
name = ogonek;
pos = (538,10);
},
{
name = top;
pos = (455,616);
},
{
name = topright;
pos = (770,616);
}
);
color = 1;
layerId = m003;
shapes = (
{
closed = 1;
nodes = (
(453,-11,o),
(570,78,o),
(601,204,cs),
(634,339,o),
(653,431,o),
(673,514,cs),
(688,578,o),
(714,588,o),
(762,588,c),
(768,616,l),
(570,616,l),
(565,592,l),
(613,582,o),
(639,553,o),
(623,481,cs),
(602,387,o),
(584,303,o),
(560,208,cs),
(536,111,o),
(434,42,o),
(328,42,cs),
(230,42,o),
(173,102,o),
(176,188,cs),
(176,197,o),
(205,327,o),
(246,503,cs),
(262,570,o),
(299,588,o),
(349,592,c),
(354,616,l),
(120,616,l),
(113,585,l),
(142,579,o),
(181,567,o),
(168,511,cs),
(162,486,o),
(135,367,o),
(97,202,cs),
(68,77,o),
(160,-11,o),
(306,-11,cs)
);
}
);
width = 655;
}
);
metricLeft = H;
metricRight = H;
unicode = 85;
},
{
glyphname = V;
lastChange = "2025-02-19 10:22:13 +0000";
layers = (
{
anchors = (
{
name = bottom;
pos = (294,0);
},
{
name = top;
pos = (482,616);
}
);
color = 4;
layerId = m003;
shapes = (
{
closed = 1;
nodes = (
(323,-24,l),
(433,153,o),
(631,444,o),
(672,505,cs),
(713,566,o),
(752,579,o),
(816,588,c),
(822,616,l),
(572,616,l),
(567,593,l),
(616,586,o),
(648,573,o),
(641,543,cs),
(636,521,o),
(616,488,o),
(592,452,cs),
(343,70,l),
(377,93,l),
(349,227,o),
(310,480,o),
(307,496,cs),
(303,512,o),
(302,528,o),
(305,543,cs),
(309,558,o),
(314,582,o),
(402,591,c),
(408,616,l),
(120,616,l),
(114,588,l),
(160,580,o),
(204,571,o),
(219,489,cs),
(310,-24,l)
);
}
);
width = 709;
}
);
metricLeft = H;
metricRight = H;
unicode = 86;
},
{
glyphname = W;
lastChange = "2025-02-19 10:22:13 +0000";
layers = (
{
anchors = (
{
name = bottom;
pos = (411,0);
},
{
name = top;
pos = (599,616);
}
);
color = 4;
layerId = m003;
shapes = (
{
closed = 1;
nodes = (
(572,487,l),
(307,75,l),
(345,98,l),
(287,496,ls),
(277,562,o),
(262,582,o),
(348,591,c),
(354,616,l),
(120,616,l),
(114,588,l),
(142,579,o),
(188,572,o),
(201,489,cs),
(280,-24,l),
(293,-24,l),
(366,108,o),
(515,321,o),
(584,438,c)
);
},
{
closed = 1;
nodes = (
(611,-24,l),
(719,153,o),
(906,444,o),
(943,505,cs),
(980,566,o),
(982,576,o),
(1050,588,c),
(1056,616,l),
(858,616,l),
(852,591,l),
(932,570,o),
(919,533,o),
(867,452,cs),
(626,70,l),
(668,99,l),
(650,233,o),
(623,480,o),
(622,496,cs),
(615,572,o),
(619,582,o),
(688,591,c),
(694,616,l),
(460,616,l),
(454,591,l),
(499,584,o),
(528,572,o),
(538,489,cs),
(598,-24,l)
);
}
);
width = 943;
}
);
metricLeft = H;
metricRight = H;
unicode = 87;
},
{
glyphname = X;
lastChange = "2025-02-19 10:22:13 +0000";
layers = (
{
anchors = (
{
name = bottom;
pos = (261,0);
},
{
name = top;
pos = (449,616);
}
);
color = 4;
guides = (
{
angle = 53;
pos = (534,661);
}
);
layerId = m003;
shapes = (
{
closed = 1;
nodes = (
(572,0,l),
(578,28,l),
(539,33,o),
(533,26,o),
(491,114,cs),
(379,351,o),
(383,351,o),
(300,512,cs),
(286,541,o),
(282,555,o),
(285,566,cs),
(288,581,o),
(304,586,o),
(356,591,c),
(362,616,l),
(120,616,l),
(114,588,l),
(148,588,o),
(164,587,o),
(207,494,cs),
(305,286,o),
(311,286,o),
(394,105,cs),
(408,76,o),
(414,58,o),
(412,47,cs),
(408,30,o),
(384,29,o),
(320,25,c),
(314,0,l)
);
},
{
closed = 1;
nodes = (
(176,0,l),
(182,25,l),
(150,28,o),
(129,32,o),
(134,54,cs),
(137,67,o),
(146,80,o),
(177,112,cs),
(360,308,l),
(332,333,l),
(108,101,ls),
(27,17,o),
(16,30,o),
(-16,28,c),
(-22,0,l)
);
},
{
closed = 1;
nodes = (
(564,504,ls),
(643,582,o),
(669,585,o),
(708,588,c),
(714,616,l),
(516,616,l),
(510,591,l),
(537,588,o),
(554,586,o),
(550,567,cs),
(546,550,o),
(521,517,o),
(467,463,cs),
(343,340,l),
(373,315,l)
);
}
);
width = 644;
}
);
metricLeft = H;
metricRight = H;
unicode = 88;
},
{
glyphname = Y;
lastChange = "2025-02-19 10:22:13 +0000";
layers = (
{
anchors = (
{
name = bottom;
pos = (213,0);
},
{
name = top;
pos = (401,616);
},
{
name = topleft;
pos = (139,616);
}
);
color = 4;
layerId = m003;
shapes = (
{
closed = 1;
nodes = (
(407,0,l),
(413,28,l),
(344,33,o),
(298,30,o),
(312,93,cs),
(364,318,l),
(336,257,l),
(541,509,ls),
(605,588,o),
(641,588,o),
(654,588,c),
(660,616,l),
(462,616,l),
(456,591,l),
(526,581,o),
(537,565,o),
(492,505,c),
(330,306,l),
(344,307,l),
(275,525,l),
(260,586,o),
(261,585,o),
(330,591,c),
(336,616,l),
(120,616,l),
(114,588,l),
(149,588,o),
(168,581,o),
(175,556,cs),
(272,243,l),
(278,293,l),
(231,93,ls),
(219,38,o),
(155,33,o),
(107,28,c),
(101,0,l)
);
}
);
width = 547;
}
);
metricLeft = H;
metricRight = H;
unicode = 89;
},
{
glyphname = Z;
lastChange = "2025-02-19 10:22:13 +0000";
layers = (
{
anchors = (
{
name = bottom;
pos = (217,0);
},
{
name = center;
pos = (311,308);
},
{
name = top;
pos = (405,616);
}
);
color = 4;
layerId = m003;
shapes = (
{
closed = 1;
nodes = (
(77,0,o),
(272,1,o),
(301,1,cs),
(331,1,o),
(401,1,o),
(442,-2,c),
(481,57,o),
(523,143,o),
(548,210,c),
(514,210,l),
(491,154,o),
(422,43,o),
(274,41,cs),
(61,38,l),
(63,24,l),
(609,594,l),
(603,621,l),
(525,616,o),
(371,615,o),
(323,615,cs),
(265,615,o),
(164,611,o),
(124,617,c),
(101,554,o),
(80,490,o),
(65,427,c),
(93,427,l),
(115,479,o),
(126,576,o),
(261,576,cs),
(336,576,o),
(452,574,o),
(509,572,c),
(505,596,l),
(-55,12,l),
(-50,0,l)
);
}
);
width = 556;
}
);
metricLeft = H;
metricRight = H;
unicode = 90;
},
{
glyphname = a;
lastChange = "2025-02-20 20:28:52 +0000";
layers = (
{
anchors = (
{
name = bottom;
pos = (168,0);
},
{
name = ogonek;
pos = (350,10);
},
{
name = top;
pos = (262,402);
}
);
layerId = m003;
shapes = (
{
closed = 1;
nodes = (
(129,-15,o),
(231,71,o),
(292,191,c),
(286,242,l),
(232,132,o),
(150,45,o),
(107,45,cs),
(84,45,o),
(82,92,o),
(103,167,cs),
(137,274,o),
(201,347,o),
(262,347,cs),
(277,347,o),
(304,331,o),
(324,318,c),
(355,367,l),
(335,377,o),
(305,379,o),
(287,379,cs),
(174,379,o),
(62,280,o),
(20,140,cs),
(-6,51,o),
(9,-15,o),
(64,-15,cs)
);
},
{
closed = 1;
nodes = (
(333,-14,o),
(382,27,o),
(435,95,c),
(411,114,l),
(372,64,o),
(338,45,o),
(330,45,cs),
(314,45,o),
(315,86,o),
(331,156,cs),
(349,238,o),
(379,341,o),
(413,415,c),
(388,409,o),
(351,406,o),
(327,407,c),
(282,266,o),
(275,228,o),
(269,201,cs),
(266,189,o),
(264,180,o),
(260,163,cs),
(231,71,o),
(237,-14,o),
(282,-14,cs)
);
}
);
width = 434;
},
{
associatedMasterId = m003;
layerId = "0DE6FB79-B0B6-414C-BAFE-4B31CAFD69E7";
name = "7. Nov. 24, 00:06";
shapes = (
{
closed = 1;
nodes = (
(386,427,l),
(364,443,o),
(341,460,o),
(326,460,cs),
(253,460,o),
(163,346,o),
(113,184,cs),
(95,125,o),
(89,76,o),
(108,76,cs),
(131,76,o),
(206,136,o),
(276,208,c),
(293,190,l),
(187,77,o),
(81,-10,o),
(46,-10,cs),
(-3,-10,o),
(-12,61,o),
(16,152,cs),
(81,363,o),
(222,508,o),
(354,508,cs),
(374,508,o),
(402,493,o),
(424,476,c)
);
},
{
closed = 1;
nodes = (
(457,500,l),
(414,395,o),
(364,261,o),
(334,177,cs),
(307,105,o),
(302,54,o),
(322,54,cs),
(345,54,o),
(386,119,o),
(421,210,c),
(451,210,l),
(402,82,o),
(324,-8,o),
(263,-8,cs),
(220,-8,o),
(211,51,o),
(242,135,cs),
(211,52,o),
(288,250,o),
(382,500,c)
);
}
);
width = 467;
},
{
associatedMasterId = m003;
background = {
shapes = (
{
closed = 1;
nodes = (
(200,83,o),
(113,-8,o),
(67,-8,cs),
(3,-8,o),
(-18,54,o),
(15,141,cs),
(38,202,o),
(65,270,o),
(82,315,cs),
(109,387,o),
(115,438,o),
(96,438,cs),
(72,438,o),
(29,373,o),
(-8,282,c),
(-38,282,l),
(15,414,o),
(95,508,o),
(155,508,cs),
(199,508,o),
(206,445,o),
(173,357,cs),
(136,259,o),
(109,190,o),
(109,192,cs),
(83,118,o),
(83,66,o),
(110,66,cs),
(145,66,o),
(215,145,o),
(277,257,c),
(277,212,l)
);
},
{
closed = 1;
nodes = (
(442,500,l),
(402,401,o),
(351,268,o),
(319,177,cs),
(292,105,o),
(287,54,o),
(307,54,cs),
(330,54,o),
(371,119,o),
(406,210,c),
(436,210,l),
(387,82,o),
(309,-8,o),
(248,-8,cs),
(205,-8,o),
(196,51,o),
(227,135,cs),
(196,52,o),
(273,250,o),
(367,500,c)
);
}
);
};
layerId = "90AB4BE1-A270-4CBB-8974-CA3C0A24FD98";
name = "8. Nov. 24, 10:52";
shapes = (
{
closed = 1;
nodes = (
(376,417,l),
(343,441,o),
(313,452,o),
(286,452,cs),
(209,452,o),
(152,362,o),
(103,205,cs),
(89,162,o),
(82,126,o),
(82,101,cs),
(82,79,o),
(101,56,o),
(112,56,cs),
(166,56,o),
(230,120,o),
(286,197,c),
(293,190,l),
(221,73,o),
(135,-10,o),
(86,-10,cs),
(16,-10,o),
(-13,57,o),
(16,152,cs),
(80,361,o),
(220,508,o),
(354,508,cs),
(372,508,o),
(401,495,o),
(424,476,c)
);
},
{
closed = 1;
nodes = (
(460,508,l),
(424,421,o),
(372,284,o),
(334,177,cs),
(307,105,o),
(302,54,o),
(322,54,cs),
(345,54,o),
(386,119,o),
(421,210,c),
(451,210,l),
(402,82,o),
(324,-8,o),
(263,-8,cs),
(220,-8,o),
(211,51,o),
(242,135,cs),
(211,52,o),
(288,250,o),
(382,500,c)
);
},
{
closed = 1;
nodes = (
(89,-10,o),
(183,73,o),
(293,190,c),
(276,208,l),
(195,125,o),
(126,66,o),
(109,66,cs),
(83,66,o),
(82,115,o),
(107,184,cs),
(166,346,o),
(257,460,o),
(326,460,cs),
(335,460,o),
(359,446,o),
(386,427,c),
(424,476,l),
(400,495,o),
(371,508,o),
(354,508,cs),
(232,508,o),
(91,361,o),
(15,152,cs),
(-19,57,o),
(2,-10,o),
(66,-10,cs)
);
}
);
width = 467;
}
);
metricLeft = o;
unicode = 97;
},
{
glyphname = b;
lastChange = "2025-02-20 20:34:06 +0000";
layers = (
{
anchors = (
{
name = bottom;
pos = (168,0);
},
{
name = center;
pos = (179,510);
},
{
name = top;
pos = (262,402);
}
);
layerId = m003;
shapes = (
{
closed = 1;
nodes = (
(227,-15,o),
(328,62,o),
(365,172,cs),
(411,308,o),
(374,404,o),
(276,404,cs),
(224,404,o),
(159,373,o),
(119,330,c),
(122,285,l),
(152,326,o),
(201,355,o),
(241,355,cs),
(307,355,o),
(325,268,o),
(284,146,cs),
(260,74,o),
(206,23,o),
(153,23,cs),
(112,23,o),
(96,67,o),
(115,130,cs),
(181,363,o),
(229,534,o),
(231,542,cs),
(240,573,o),
(258,623,o),
(273,662,c),
(246,646,o),
(162,635,o),
(69,635,c),
(65,606,l),
(128,609,o),
(168,599,o),
(163,583,c),
(161,567,o),
(156,543,o),
(151,525,cs),
(35,102,ls),
(16,33,o),
(52,-15,o),
(122,-15,cs)
);
}
);
width = 407;
}
);
metricLeft = l;
metricRight = o;
unicode = 98;
},
{
glyphname = c;
lastChange = "2025-02-20 20:23:37 +0000";
layers = (
{
anchors = (
{
name = bottom;
pos = (118,0);
},
{
name = top;
pos = (212,402);
}
);
background = {
shapes = (
{
closed = 1;
nodes = (
(146,-12,o),
(226,32,o),
(278,93,c),
(260,111,l),
(220,67,o),
(166,42,o),
(127,42,cs),
(75,42,o),
(66,115,o),
(111,225,cs),
(145,311,o),
(197,367,o),
(237,367,cs),
(258,367,o),
(264,345,o),
(250,307,cs),
(229,254,o),
(154,207,o),
(70,192,c),
(62,160,l),
(190,184,o),
(299,254,o),
(327,323,cs),
(346,375,o),
(319,412,o),
(263,412,cs),
(172,412,o),
(73,324,o),
(25,200,cs),
(-22,76,o),
(2,-12,o),
(84,-12,cs)
);
}
);
};
layerId = m003;
shapes = (
{
closed = 1;
nodes = (
(174,-14,o),
(251,30,o),
(296,93,c),
(273,114,l),
(240,73,o),
(188,44,o),
(148,44,cs),
(99,44,o),
(83,117,o),
(112,224,cs),
(139,320,o),
(184,387,o),
(223,387,cs),
(257,387,o),
(271,350,o),
(254,294,c),
(253,284,o),
(257,275,o),
(266,275,cs),
(299,275,o),
(326,293,o),
(333,316,cs),
(347,374,o),
(305,414,o),
(235,414,cs),
(145,414,o),
(57,325,o),
(25,201,cs),
(-8,75,o),
(27,-14,o),
(112,-14,cs)
);
}
);
width = 335;
}
);
metricLeft = o;
metricRight = o;
unicode = 99;
},
{
glyphname = d;
lastChange = "2025-02-20 20:37:08 +0000";
layers = (
{
anchors = (
{
name = bottom;
pos = (164,0);
},
{
name = center;
pos = (392,510);
},
{
name = top;
pos = (257,402);
},
{
name = topright;
pos = (510,637);
}
);
layerId = m003;
shapes = (
{
closed = 1;
nodes = (
(316,-14,o),
(384,25,o),
(412,79,c),
(391,97,l),
(368,62,o),
(335,38,o),
(311,38,cs),
(298,38,o),
(295,64,o),
(306,105,cs),
(335,216,o),
(393,429,o),
(423,540,cs),
(430,565,o),
(446,616,o),
(463,660,c),
(430,644,o),
(341,633,o),
(260,633,c),
(256,604,l),
(320,607,o),
(359,597,o),
(354,580,c),
(354,564,o),
(348,541,o),
(344,523,cs),
(324,448,o),
(305,375,o),
(287,309,cs),
(253,177,o),
(227,79,o),
(227,72,cs),
(218,23,o),
(228,-14,o),
(252,-14,cs)
);
},
{
closed = 1;
nodes = (
(132,-15,o),
(235,71,o),
(297,191,c),
(293,242,l),
(236,132,o),
(152,45,o),
(109,45,cs),
(86,45,o),
(85,122,o),
(109,197,cs),
(143,304,o),
(208,377,o),
(269,377,cs),
(284,377,o),
(312,361,o),
(331,348,c),
(364,397,l),
(344,407,o),
(315,409,o),
(297,409,cs),
(184,409,o),
(69,310,o),
(25,170,cs),
(-3,81,o),
(12,-15,o),
(67,-15,cs)
);
}
);
width = 419;
},
{
associatedMasterId = m003;
layerId = "993377BE-703F-43F0-9103-9C55914F64D0";
name = "7. Nov. 24, 00:11";
shapes = (
{
closed = 1;
nodes = (
(98,-3,o),
(197,77,o),
(303,190,c),
(286,208,l),
(216,136,o),
(150,85,o),
(127,85,cs),
(108,85,o),
(107,127,o),
(125,186,cs),
(175,348,o),
(261,463,o),
(334,463,cs),
(348,463,o),
(373,451,o),
(396,435,c),
(434,484,l),
(412,501,o),
(382,513,o),
(362,513,cs),
(230,513,o),
(91,363,o),
(26,152,cs),
(-2,61,o),
(14,-3,o),
(63,-3,cs)
);
},
{
closed = 1;
nodes = (
(326,-6,o),
(410,88,o),
(463,220,c),
(433,220,l),
(402,142,o),
(359,87,o),
(330,87,cs),
(318,87,o),
(325,128,o),
(347,187,cs),
(369,248,o),
(481,573,o),
(531,701,c),
(456,701,l),
(255,145,l),
(222,57,o),
(225,-6,o),
(262,-6,cs)
);
},
{
closed = 1;
nodes = (
(336,648,l),
(391,651,o),
(437,635,o),
(447,610,c),
(456,701,l),
(342,702,l)
);
}
);
width = 463;
}
);
metricLeft = o;
metricWidth = a;
unicode = 100;
},
{
glyphname = e;
lastChange = "2025-02-20 20:28:55 +0000";
layers = (
{
anchors = (
{
name = bottom;
pos = (125,0);
},
{
name = ogonek;
pos = (273,10);
},
{
name = top;
pos = (219,402);
}
);
layerId = m003;
shapes = (
{
closed = 1;
nodes = (
(183,-14,o),
(258,30,o),
(303,93,c),
(279,114,l),
(245,69,o),
(195,44,o),
(156,44,cs),
(106,44,o),
(87,114,o),
(118,224,cs),
(140,310,o),
(184,365,o),
(223,365,cs),
(242,365,o),
(250,344,o),
(241,308,cs),
(228,255,o),
(159,209,o),
(76,194,c),
(73,157,l),
(200,181,o),
(302,253,o),
(321,322,cs),
(334,376,o),
(300,414,o),
(243,414,cs),
(151,414,o),
(62,325,o),
(31,201,cs),
(1,77,o),
(36,-14,o),
(120,-14,cs)
);
}
);
width = 348;
}
);
metricLeft = o;
unicode = 101;
},
{
glyphname = f;
lastChange = "2025-02-20 20:22:49 +0000";
layers = (
{
anchors = (
{
name = bottom;
pos = (84,0);
},
{
name = top;
pos = (278,637);
}
);
background = {
shapes = (
{
closed = 0;
nodes = (
(46,81,ls),
(35,33,o),
(6,-90,o),
(-36,-138,cs),
(-46,-150,o),
(-57,-157,o),
(-69,-157,cs),
(-88,-158,o),
(-85,-135,o),
(-104,-134,cs),
(-137,-134,o),
(-167,-163,o),
(-176,-205,cs),
(-180,-220,o),
(-165,-232,o),
(-139,-232,cs),
(-105,-232,o),
(-40,-190,o),
(-16,-164,cs),
(47,-96,o),
(109,29,o),
(134,148,cs)
);
}
);
};
layerId = m003;
shapes = (
{
closed = 1;
nodes = (
(-115,-234,o),
(-72,-202,o),
(-31,-164,cs),
(66,-78,o),
(114,68,o),
(135,148,cs),
(144,180,o),
(151,210,o),
(160,241,cs),
(181,323,o),
(201,402,o),
(227,486,cs),
(250,562,o),
(305,608,o),
(346,608,cs),
(390,608,o),
(412,581,o),
(398,542,cs),
(392,529,o),
(398,520,o),
(408,520,cs),
(439,520,o),
(468,538,o),
(476,561,cs),
(491,610,o),
(449,643,o),
(374,643,cs),
(273,643,o),
(165,559,o),
(130,434,cs),
(116,383,o),
(100,318,o),
(85,254,cs),
(64,175,o),
(44,95,o),
(27,32,cs),
(2,-55,o),
(-9,-89,o),
(-54,-137,cs),
(-65,-149,o),
(-77,-155,o),
(-86,-155,cs),
(-94,-155,o),
(-97,-151,o),
(-101,-144,cs),
(-105,-138,o),
(-109,-132,o),
(-120,-132,cs),
(-152,-132,o),
(-186,-163,o),
(-197,-205,cs),
(-201,-220,o),
(-187,-234,o),
(-160,-234,cs)
);
},
{
closed = 1;
nodes = (
(281,357,l),
(301,406,l),
(121,402,l),
(34,382,l),
(30,369,l)
);
}
);
width = 263;
}
);
metricWidth = l;
unicode = 102;
},
{
glyphname = g;
lastChange = "2025-02-20 20:33:26 +0000";
layers = (
{
anchors = (
{
name = bottom;
pos = (72,-230);
},
{
name = top;
pos = (265,402);
}
);
layerId = m003;
shapes = (
{
closed = 1;
nodes = (
(206,-173,o),
(305,-134,o),
(318,-79,cs),
(340,10,o),
(253,35,o),
(181,56,cs),
(137,69,o),
(102,80,o),
(106,101,cs),
(110,123,o),
(135,140,o),
(169,142,c),
(169,146,l),
(128,154,l),
(90,139,o),
(57,108,o),
(51,83,cs),
(35,14,o),
(106,-8,o),
(169,-28,cs),
(219,-44,o),
(261,-58,o),
(253,-90,cs),
(246,-118,o),
(193,-138,o),
(126,-138,cs),
(32,-138,o),
(-3,-92,o),
(14,-23,cs),
(21,4,o),
(49,29,o),
(112,40,c),
(85,61,l),
(-7,44,o),
(-62,-4,o),
(-73,-55,cs),
(-90,-123,o),
(-39,-173,o),
(79,-173,cs)
);
},
{
closed = 1;
nodes = (
(229,127,o),
(300,184,o),
(322,264,cs),
(347,351,o),
(308,414,o),
(229,414,cs),
(155,414,o),
(88,359,o),
(66,281,cs),
(42,192,o),
(78,127,o),
(152,127,cs)
);
},
{
closed = 1;
nodes = (
(126,154,o),
(121,208,o),
(148,288,cs),
(166,346,o),
(197,386,o),
(223,386,cs),
(254,386,o),
(262,332,o),
(240,253,cs),
(224,194,o),
(190,154,o),
(158,154,cs)
);
},
{
closed = 1;
nodes = (
(299,284,o),
(348,358,o),
(380,358,cs),
(383,358,o),
(387,357,o),
(391,356,cs),
(395,355,o),
(399,354,o),
(401,354,cs),
(412,354,o),
(427,368,o),
(434,386,cs),
(440,403,o),
(429,414,o),
(411,414,cs),
(367,414,o),
(300,332,o),
(250,220,c),
(264,178,l)
);
}
);
width = 397;
},
{
associatedMasterId = m003;
background = {
shapes = (
{
closed = 0;
nodes = (
(-67,-200,l),
(278,700,l)
);
},
{
closed = 0;
nodes = (
(8,-200,l),
(353,700,l)
);
},
{
closed = 0;
nodes = (
(148,-200,l),
(493,700,l)
);
},
{
closed = 0;
nodes = (
(223,-200,l),
(568,700,l)
);
},
{
closed = 0;
nodes = (
(-172,-200,l),
(173,700,l)
);
},
{
closed = 0;
nodes = (
(-142,-200,l),
(203,700,l)
);
},
{
closed = 0;
nodes = (
(298,-200,l),
(643,700,l)
);
},
{
closed = 0;
nodes = (
(328,-200,l),
(673,700,l)
);
}
);
};
layerId = "CD19AF2B-D444-4E18-A45E-DA9D7905EDAB";
name = "6. Nov. 24, 23:26";
shapes = (
{
closed = 1;
nodes = (
(199,-248,o),
(311,-189,o),
(339,-100,cs),
(353,-51,o),
(314,-3,o),
(245,16,cs),
(162,38,o),
(104,68,o),
(104,88,cs),
(104,101,o),
(126,128,o),
(157,154,c),
(123,163,l),
(88,130,o),
(60,97,o),
(55,83,cs),
(39,39,o),
(55,0,o),
(93,-11,cs),
(202,-41,o),
(271,-89,o),
(261,-126,cs),
(250,-165,o),
(192,-196,o),
(120,-201,cs),
(-1,-209,o),
(-69,-161,o),
(-44,-85,cs),
(-31,-48,o),
(30,-6,o),
(103,18,c),
(81,45,l),
(-35,9,o),
(-124,-51,o),
(-134,-101,cs),
(-153,-191,o),
(-69,-249,o),
(68,-241,cs)
);
},
{
closed = 1;
nodes = (
(229,132,o),
(298,192,o),
(328,279,cs),
(367,399,o),
(333,482,o),
(244,479,cs),
(166,476,o),
(88,411,o),
(57,323,cs),
(16,206,o),
(58,128,o),
(160,135,cs)
);
},
{
closed = 1;
nodes = (
(125,182,o),
(111,246,o),
(140,339,cs),
(157,394,o),
(188,434,o),
(216,435,cs),
(263,437,o),
(274,366,o),
(243,264,cs),
(228,215,o),
(199,182,o),
(171,184,cs)
);
},
{
closed = 1;
nodes = (
(337,397,o),
(345,432,o),
(367,434,cs),
(384,435,o),
(430,405,o),
(441,389,c),
(470,411,l),
(463,454,o),
(444,484,o),
(424,484,cs),
(378,484,o),
(323,451,o),
(292,404,c),
(310,377,l)
);
}
);
width = 414;
}
);
unicode = 103;
},
{
glyphname = h;
lastChange = "2025-02-20 20:27:38 +0000";
layers = (
{
anchors = (
{
name = bottom;
pos = (168,0);
},
{
name = center;
pos = (175,510);
},
{
name = top;
pos = (317,637);
}
);
layerId = m003;
shapes = (
{
closed = 1;
nodes = (
(274,-14,o),
(346,66,o),
(384,178,cs),
(430,314,o),
(400,414,o),
(312,414,cs),
(250,414,o),
(163,324,o),
(99,196,c),
(127,179,l),
(169,279,o),
(226,349,o),
(264,349,cs),
(326,349,o),
(342,268,o),
(302,150,cs),
(277,72,o),
(247,18,o),
(230,18,cs),
(219,18,o),
(217,40,o),
(225,75,cs),
(229,84,o),
(226,94,o),
(218,94,cs),
(189,94,o),
(162,80,o),
(156,61,cs),
(142,17,o),
(166,-14,o),
(208,-14,cs)
);
},
{
closed = 1;
nodes = (
(21,-10,o),
(53,-7,o),
(81,-7,c),
(107,104,o),
(192,432,o),
(225,543,cs),
(233,568,o),
(250,619,o),
(266,663,c),
(230,647,o),
(144,636,o),
(62,636,c),
(60,607,l),
(123,610,o),
(162,600,o),
(156,584,c),
(155,568,o),
(151,544,o),
(146,526,cs),
(130,465,o),
(115,411,o),
(101,358,cs),
(64,216,o),
(34,100,o),
(-8,-16,c)
);
}
);
width = 432;
}
);
metricLeft = l;
metricRight = o;
unicode = 104;
},
{
glyphname = i;
lastChange = "2025-02-20 20:28:08 +0000";
layers = (
{
anchors = (
{
name = bottom;
pos = (83,0);
}
);
layerId = m003;
shapes = (
{
closed = 1;
nodes = (
(213,522,o),
(237,540,o),
(241,562,cs),
(249,592,o),
(222,615,o),
(188,615,cs),
(162,615,o),
(139,597,o),
(137,575,cs),
(131,546,o),
(153,522,o),
(185,522,cs)
);
},
{
closed = 1;
nodes = (
(52,80,ls),
(37,27,o),
(48,-14,o),
(80,-14,cs),
(128,-14,o),
(195,28,o),
(240,84,c),
(217,104,l),
(178,66,o),
(146,40,o),
(137,40,cs),
(126,40,o),
(123,63,o),
(135,100,cs),
(201,339,ls),
(217,397,o),
(204,414,o),
(172,414,cs),
(123,414,o),
(66,368,o),
(22,320,c),
(48,299,l),
(74,330,o),
(101,353,o),
(116,353,cs),
(123,353,o),
(122,325,o),
(109,281,cs)
);
}
);
width = 250;
}
);
unicode = 105;
},
{
glyphname = j;
lastChange = "2025-02-20 20:28:26 +0000";
layers = (
{
layerId = m003;
shapes = (
{
closed = 1;
nodes = (
(-58,-234,o),
(97,-78,o),
(138,74,cs),
(212,343,ls),
(224,385,o),
(220,414,o),
(188,414,cs),
(184,414,l),
(181,414,l),
(180,414,ls),
(142,409,o),
(80,372,o),
(25,320,c),
(46,299,l),
(77,330,o),
(109,353,o),
(123,353,cs),
(125,353,o),
(126,353,o),
(127,348,c),
(126,334,o),
(118,302,o),
(108,260,cs),
(58,62,ls),
(25,-72,o),
(-33,-155,o),
(-52,-155,cs),
(-60,-155,o),
(-63,-151,o),
(-67,-144,cs),
(-71,-138,o),
(-75,-132,o),
(-86,-132,cs),
(-119,-132,o),
(-152,-163,o),
(-159,-196,cs),
(-166,-220,o),
(-150,-234,o),
(-123,-234,cs)
);
},
{
closed = 1;
nodes = (
(233,522,o),
(257,540,o),
(261,562,cs),
(269,592,o),
(242,615,o),
(208,615,cs),
(182,615,o),
(159,597,o),
(157,575,cs),
(151,546,o),
(173,522,o),
(205,522,cs)
);
}
);
width = 230;
},
{
associatedMasterId = m003;
background = {
shapes = (
{
closed = 1;
nodes = (
(-22,-158,o),
(-76,-230,o),
(-122,-230,cs),
(-160,-230,o),
(-169,-180,o),
(-144,-109,cs),
(-138,-93,o),
(-142,-81,o),
(-153,-81,cs),
(-194,-81,o),
(-232,-105,o),
(-244,-139,cs),
(-268,-209,o),
(-226,-258,o),
(-143,-258,cs),
(-43,-258,o),
(53,-169,o),
(89,-43,c),
(7,-57,l)
);
}
);
};
layerId = "F26A99E2-B18E-42DF-831C-82EB1608A556";
name = "7. Nov. 24, 19:28";
shapes = (
{
closed = 1;
nodes = (
(-12,-106,o),
(-57,-181,o),
(-103,-181,cs),
(-141,-181,o),
(-150,-131,o),
(-125,-60,cs),
(-119,-44,o),
(-123,-32,o),
(-134,-32,cs),
(-175,-32,o),
(-213,-56,o),
(-225,-90,cs),
(-249,-160,o),
(-207,-209,o),
(-124,-209,cs),
(-24,-209,o),
(60,-116,o),
(108,6,cs),
(254,381,l),
(277,455,o),
(264,508,o),
(224,508,cs),
(163,508,o),
(85,418,o),
(36,290,c),
(66,290,l),
(101,381,o),
(142,446,o),
(165,446,cs),
(185,446,o),
(180,395,o),
(153,323,cs),
(26,-8,ls)
);
},
{
closed = 1;
nodes = (
(283,612,o),
(311,631,o),
(319,659,cs),
(328,687,o),
(311,706,o),
(279,706,cs),
(247,706,o),
(218,687,o),
(209,659,cs),
(201,631,o),
(218,612,o),
(250,612,cs)
);
}
);
width = 263;
}
);
metricWidth = i;
unicode = 106;
},
{
glyphname = k;
lastChange = "2025-02-20 20:11:22 +0000";
layers = (
{
layerId = m003;
shapes = (
{
closed = 1;
nodes = (
(304,264,ls),
(352,291,o),
(382,338,o),
(377,373,cs),
(375,396,o),
(351,414,o),
(322,414,cs),
(259,414,o),
(188,381,o),
(136,280,c),
(142,235,l),
(186,332,o),
(241,357,o),
(291,357,cs),
(301,357,o),
(309,347,o),
(310,334,cs),
(311,316,o),
(293,291,o),
(262,274,cs),
(75,165,l),
(80,134,l)
);
},
{
closed = 1;
nodes = (
(22,-10,o),
(53,-7,o),
(83,-7,c),
(107,104,o),
(193,428,o),
(225,539,cs),
(232,564,o),
(249,615,o),
(265,659,c),
(230,643,o),
(143,632,o),
(62,632,c),
(59,603,l),
(122,606,o),
(161,596,o),
(156,580,c),
(155,564,o),
(150,540,o),
(146,522,cs),
(128,458,o),
(113,402,o),
(99,348,cs),
(63,211,o),
(34,98,o),
(-7,-16,c)
);
},
{
closed = 1;
nodes = (
(400,102,l),
(375,70,o),
(350,47,o),
(337,45,cs),
(313,43,o),
(260,129,o),
(233,253,c),
(169,211,l),
(196,79,o),
(255,-14,o),
(290,-14,cs),
(323,-14,o),
(377,25,o),
(422,80,c)
);
}
);
width = 415;
}
);
unicode = 107;
},
{
glyphname = l;
lastChange = "2025-02-20 20:23:09 +0000";
layers = (
{
layerId = m003;
shapes = (
{
closed = 1;
nodes = (
(120,-14,o),
(187,25,o),
(215,79,c),
(195,97,l),
(172,62,o),
(140,38,o),
(116,38,cs),
(103,38,o),
(99,64,o),
(110,105,cs),
(128,177,o),
(147,250,o),
(165,322,cs),
(184,393,o),
(203,466,o),
(221,538,cs),
(228,563,o),
(245,614,o),
(261,658,c),
(227,642,o),
(138,631,o),
(57,631,c),
(53,602,l),
(117,605,o),
(156,595,o),
(152,578,c),
(152,562,o),
(146,539,o),
(142,521,cs),
(123,445,o),
(105,371,o),
(86,296,cs),
(67,221,o),
(47,146,o),
(29,72,c),
(21,23,o),
(32,-14,o),
(56,-14,cs)
);
}
);
width = 214;
}
);
unicode = 108;
},
{
glyphname = m;
lastChange = "2025-02-20 20:23:13 +0000";
layers = (
{
anchors = (
{
name = bottom;
pos = (291,0);
},
{
name = top;
pos = (377,402);
}
);
layerId = m003;
shapes = (
{
closed = 1;
nodes = (
(530,-15,o),
(578,25,o),
(636,95,c),
(614,116,l),
(580,75,o),
(544,44,o),
(530,44,cs),
(520,44,o),
(533,83,o),
(557,145,cs),
(603,271,ls),
(633,352,o),
(641,415,o),
(586,415,cs),
(521,415,o),
(394,301,o),
(327,144,c),
(307,25,l),
(359,183,o),
(487,349,o),
(545,349,cs),
(560,349,o),
(546,314,o),
(524,249,cs),
(464,91,ls),
(431,0,o),
(461,-15,o),
(493,-15,cs)
);
},
{
closed = 1;
nodes = (
(44,-9,o),
(68,-5,o),
(94,-4,c),
(154,209,o),
(181,318,o),
(184,333,cs),
(193,387,o),
(186,414,o),
(150,414,cs),
(112,414,o),
(74,378,o),
(10,300,c),
(35,279,l),
(65,321,o),
(93,343,o),
(105,343,cs),
(118,343,o),
(111,298,o),
(100,258,cs),
(52,80,o),
(31,23,o),
(18,-14,c)
);
},
{
closed = 1;
nodes = (
(246,-11,o),
(278,-5,o),
(301,-5,c),
(307,22,o),
(347,163,o),
(370,243,cs),
(375,262,o),
(380,279,o),
(383,288,cs),
(403,360,o),
(405,414,o),
(367,414,cs),
(298,414,o),
(193,304,o),
(119,153,c),
(109,54,l),
(153,191,o),
(281,344,o),
(316,344,cs),
(327,344,o),
(323,304,o),
(299,224,cs),
(269,118,o),
(240,31,o),
(223,-15,c)
);
}
);
width = 667;
}
);
metricLeft = n;
metricRight = n;
unicode = 109;
},
{
glyphname = n;
lastChange = "2025-02-20 20:23:41 +0000";
layers = (
{
anchors = (
{
name = bottom;
pos = (179,0);
},
{
name = top;
pos = (273,402);
}
);
layerId = m003;
shapes = (
{
closed = 1;
nodes = (
(45,-7,o),
(70,-3,o),
(96,-2,c),
(157,213,o),
(181,318,o),
(184,333,cs),
(193,387,o),
(186,414,o),
(150,414,cs),
(112,414,o),
(74,378,o),
(10,300,c),
(35,279,l),
(65,321,o),
(93,343,o),
(105,343,cs),
(118,343,o),
(111,298,o),
(100,258,cs),
(52,80,o),
(33,24,o),
(20,-12,c)
);
},
{
closed = 1;
nodes = (
(321,-15,o),
(369,25,o),
(427,95,c),
(405,116,l),
(371,75,o),
(335,44,o),
(321,44,cs),
(311,44,o),
(324,83,o),
(347,145,cs),
(388,271,ls),
(418,352,o),
(426,415,o),
(371,415,cs),
(305,415,o),
(178,301,o),
(112,144,c),
(92,25,l),
(144,183,o),
(272,349,o),
(330,349,cs),
(344,349,o),
(331,314,o),
(309,249,cs),
(255,91,ls),
(221,0,o),
(252,-15,o),
(284,-15,cs)
);
}
);
width = 452;
}
);
unicode = 110;
},
{
glyphname = o;
lastChange = "2025-02-20 20:29:01 +0000";
layers = (
{
anchors = (
{
name = bottom;
pos = (153,0);
},
{
name = center;
pos = (173,201);
},
{
name = ogonek;
pos = (322,10);
},
{
name = top;
pos = (247,402);
},
{
name = topright;
pos = (436,402);
}
);
layerId = m003;
shapes = (
{
closed = 1;
nodes = (
(219,-14,o),
(306,55,o),
(344,150,cs),
(407,305,o),
(369,414,o),
(255,414,cs),
(171,414,o),
(84,343,o),
(46,244,cs),
(-14,93,o),
(24,-14,o),
(136,-14,cs)
);
},
{
closed = 1;
nodes = (
(81,13,o),
(76,116,o),
(136,266,cs),
(164,337,o),
(210,387,o),
(247,387,cs),
(312,387,o),
(316,281,o),
(254,127,cs),
(227,60,o),
(182,13,o),
(145,13,cs)
);
}
);
width = 402;
}
);
unicode = 111;
},
{
glyphname = p;
lastChange = "2025-02-20 20:41:04 +0000";
layers = (
{
anchors = (
{
name = bottom;
pos = (156,0);
},
{
name = top;
pos = (278,402);
}
);
background = {
shapes = (
{
closed = 1;
nodes = (
(267,-15,o),
(368,62,o),
(405,172,cs),
(451,308,o),
(414,404,o),
(316,404,cs),
(264,404,o),
(199,373,o),
(159,330,c),
(162,285,l),
(192,326,o),
(241,355,o),
(281,355,cs),
(347,355,o),
(365,268,o),
(324,146,cs),
(300,74,o),
(246,23,o),
(193,23,cs),
(152,23,o),
(136,67,o),
(155,130,cs),
(221,363,o),
(269,534,o),
(271,542,cs),
(280,573,o),
(298,623,o),
(313,662,c),
(286,646,o),
(202,635,o),
(109,635,c),
(105,606,l),
(168,609,o),
(208,599,o),
(203,583,c),
(201,567,o),
(196,543,o),
(191,525,cs),
(75,102,ls),
(56,33,o),
(92,-15,o),
(162,-15,cs)
);
}
);
};
layerId = m003;
shapes = (
{
closed = 1;
nodes = (
(266,-6,o),
(361,73,o),
(410,196,cs),
(455,308,o),
(399,412,o),
(296,412,cs),
(179,412,o),
(60,349,o),
(10,262,c),
(28,230,l),
(71,308,o),
(165,363,o),
(256,363,cs),
(328,363,o),
(367,270,o),
(327,170,cs),
(293,87,o),
(225,33,o),
(160,33,cs),
(144,33,o),
(118,45,o),
(100,62,c),
(91,14,l),
(107,3,o),
(141,-6,o),
(170,-6,cs)
);
},
{
closed = 1;
nodes = (
(155,-192,l),
(162,-167,l),
(124,-161,o),
(103,-160,o),
(93,-151,cs),
(84,-143,o),
(85,-129,o),
(93,-101,cs),
(246,463,l),
(172,458,l),
(17,-101,ls),
(8,-130,o),
(0,-145,o),
(-12,-153,cs),
(-31,-165,o),
(-54,-162,o),
(-90,-167,c),
(-97,-192,l)
);
}
);
width = 444;
},
{
associatedMasterId = m003;
background = {
shapes = (
{
closed = 0;
nodes = (
(-67,-200,l),
(278,700,l)
);
},
{
closed = 0;
nodes = (
(8,-200,l),
(353,700,l)
);
},
{
closed = 0;
nodes = (
(148,-200,l),
(493,700,l)
);
},
{
closed = 0;
nodes = (
(223,-200,l),
(568,700,l)
);
},
{
closed = 0;
nodes = (
(-172,-200,l),
(173,700,l)
);
},
{
closed = 0;
nodes = (
(-142,-200,l),
(203,700,l)
);
},
{
closed = 0;
nodes = (
(298,-200,l),
(643,700,l)
);
},
{
closed = 0;
nodes = (
(328,-200,l),
(673,700,l)
);
}
);
};
layerId = "029680C6-E5C4-473E-9EF7-0B855439BBB5";
name = "6. Nov. 24, 23:23";
shapes = (
{
closed = 1;
nodes = (
(249,-51,o),
(409,59,o),
(470,275,cs),
(504,396,o),
(462,506,o),
(347,506,cs),
(261,506,o),
(134,431,o),
(40,325,c),
(57,299,l),
(143,391,o),
(245,456,o),
(304,456,cs),
(382,456,o),
(401,364,o),
(371,255,cs),
(323,81,o),
(208,-13,o),
(136,41,c),
(127,8,l)
);
},
{
closed = 1;
nodes = (
(200,-200,l),
(209,-172,l),
(95,-172,l),
(278,568,l),
(207,562,l),
(16,-172,l),
(-81,-172,l),
(-89,-200,l)
);
}
);
width = 502;
}
);
metricRight = o;
unicode = 112;
},
{
glyphname = q;
lastChange = "2025-02-20 20:42:01 +0000";
layers = (
{
anchors = (
{
name = bottom;
pos = (245,-193);
},
{
name = top;
pos = (261,402);
}
);
layerId = m003;
shapes = (
{
closed = 1;
nodes = (
(119,-15,o),
(220,71,o),
(299,191,c),
(301,242,l),
(230,132,o),
(148,45,o),
(105,45,cs),
(82,45,o),
(102,186,o),
(135,261,cs),
(184,368,o),
(241,367,o),
(302,367,cs),
(317,367,o),
(342,351,o),
(360,338,c),
(398,387,l),
(380,397,o),
(351,399,o),
(333,399,cs),
(220,399,o),
(110,374,o),
(47,234,cs),
(8,145,o),
(-1,-15,o),
(54,-15,cs)
);
},
{
closed = 1;
nodes = (
(330,-192,l),
(337,-167,l),
(299,-161,o),
(276,-160,o),
(266,-151,cs),
(258,-143,o),
(258,-129,o),
(266,-101,cs),
(405,408,l),
(331,403,l),
(190,-101,ls),
(182,-130,o),
(176,-145,o),
(163,-153,cs),
(145,-165,o),
(121,-162,o),
(85,-167,c),
(78,-192,l)
);
}
);
width = 406;
},
{
associatedMasterId = m003;
background = {
shapes = (
{
closed = 0;
nodes = (
(188,-146,l),
(185,-161,o),
(171,-172,o),
(155,-172,c),
(84,-172,l),
(76,-200,l),
(365,-200,l),
(374,-172,l),
(315,-172,l),
(283,-172,o),
(266,-150,o),
(273,-120,c)
);
}
);
};
layerId = "00B6DBDF-8A79-4760-8C61-E953A7B5EE51";
name = "7. Nov. 24, 00:08";
shapes = (
{
closed = 1;
nodes = (
(368,-200,l),
(377,-172,l),
(363,-172,o),
(351,-172,o),
(334,-172,cs),
(290,-172,o),
(268,-143,o),
(281,-101,c),
(433,396,l),
(441,420,o),
(451,447,o),
(457,459,c),
(443,488,o),
(418,508,o),
(395,508,cs),
(258,508,o),
(100,370,o),
(29,175,cs),
(-10,68,o),
(9,-8,o),
(76,-8,cs),
(137,-8,o),
(244,23,o),
(310,106,c),
(312,139,l),
(264,69,o),
(192,62,o),
(163,62,cs),
(93,62,o),
(65,125,o),
(95,213,cs),
(141,345,o),
(230,439,o),
(309,439,cs),
(347,439,o),
(365,414,o),
(354,379,c),
(196,-142,l),
(191,-160,o),
(165,-172,o),
(134,-172,cs),
(84,-172,l),
(76,-200,l)
);
}
);
width = 431;
}
);
metricWidth = o;
unicode = 113;
},
{
glyphname = r;
lastChange = "2025-02-20 20:27:50 +0000";
layers = (
{
associatedMasterId = m003;
layerId = "D557A137-27E6-4560-890F-F4309894473F";
name = "6. Nov. 24, 23:41";
shapes = (
{
closed = 1;
nodes = (
(97,0,l),
(191,250,o),
(263,448,o),
(232,365,cs),
(263,449,o),
(260,508,o),
(216,508,cs),
(157,508,o),
(79,418,o),
(28,290,c),
(58,290,l),
(94,381,o),
(135,446,o),
(157,446,cs),
(177,446,o),
(173,395,o),
(146,323,cs),
(108,221,o),
(56,87,o),
(22,0,c)
);
},
{
closed = 1;
nodes = (
(195,313,o),
(311,474,o),
(333,474,c),
(347,474,o),
(353,456,o),
(353,424,c),
(353,384,o),
(335,365,o),
(335,343,c),
(335,332,o),
(344,329,o),
(348,329,c),
(380,329,o),
(445,349,o),
(445,418,c),
(445,474,o),
(398,508,o),
(337,508,cs),
(300,508,o),
(191,380,o),
(107,198,c),
(110,160,l)
);
}
);
width = 373;
},
{
anchors = (
{
name = bottom;
pos = (127,0);
},
{
name = top;
pos = (221,402);
}
);
layerId = m003;
name = "Groote Garmont Cursyf";
shapes = (
{
closed = 1;
nodes = (
(53,-9,o),
(91,-6,o),
(115,-7,c),
(134,66,o),
(150,125,o),
(163,173,cs),
(187,263,o),
(198,308,o),
(200,321,cs),
(209,374,o),
(201,414,o),
(170,414,cs),
(131,414,o),
(64,365,o),
(10,299,c),
(32,281,l),
(65,321,o),
(101,350,o),
(119,350,cs),
(130,350,o),
(134,329,o),
(125,290,cs),
(122,272,o),
(85,143,o),
(25,-16,c)
);
},
{
closed = 1;
nodes = (
(168,204,o),
(227,325,o),
(271,325,cs),
(277,325,o),
(283,323,o),
(290,321,cs),
(297,319,o),
(303,318,o),
(308,318,cs),
(325,318,o),
(346,340,o),
(355,370,cs),
(364,395,o),
(350,413,o),
(325,413,cs),
(262,413,o),
(173,281,o),
(105,98,c),
(122,33,l)
);
}
);
width = 338;
}
);
metricWidth = c;
unicode = 114;
},
{
glyphname = s;
lastChange = "2025-02-20 20:38:58 +0000";
layers = (
{
anchors = (
{
name = bottom;
pos = (112,0);
},
{
name = top;
pos = (206,402);
}
);
layerId = m003;
shapes = (
{
closed = 1;
nodes = (
(167,38,o),
(125,13,o),
(98,13,cs),
(65,13,o),
(50,46,o),
(69,96,c),
(74,107,o),
(72,118,o),
(60,118,cs),
(29,118,o),
(3,101,o),
(-4,78,cs),
(-21,24,o),
(20,-14,o),
(91,-14,cs),
(157,-14,o),
(234,32,o),
(252,99,cs),
(264,145,o),
(224,172,o),
(192,203,cs),
(157,238,o),
(130,277,o),
(148,340,cs),
(156,368,o),
(179,386,o),
(199,386,cs),
(233,386,o),
(249,349,o),
(228,297,cs),
(224,286,o),
(227,275,o),
(238,275,cs),
(269,275,o),
(295,292,o),
(301,315,cs),
(320,373,o),
(279,413,o),
(206,413,cs),
(145,413,o),
(88,379,o),
(74,332,cs),
(50,253,o),
(83,210,o),
(119,176,cs),
(152,145,o),
(189,124,o),
(176,74,cs)
);
}
);
width = 315;
},
{
associatedMasterId = m003;
background = {
shapes = (
{
closed = 1;
nodes = (
(169,397,l),
(183,445,o),
(210,479,o),
(234,479,cs),
(272,479,o),
(281,429,o),
(256,358,cs),
(250,342,o),
(254,330,o),
(265,330,cs),
(306,330,o),
(344,354,o),
(356,388,cs),
(380,458,o),
(338,507,o),
(255,507,cs),
(177,507,o),
(108,456,o),
(87,383,c)
);
},
{
closed = 1;
nodes = (
(168,104,l),
(148,55,o),
(111,20,o),
(79,20,cs),
(41,20,o),
(32,70,o),
(57,141,cs),
(63,157,o),
(59,169,o),
(48,169,cs),
(7,169,o),
(-31,145,o),
(-43,111,cs),
(-67,41,o),
(-25,-8,o),
(58,-8,cs),
(134,-8,o),
(215,52,o),
(254,137,c)
);
}
);
};
layerId = "EBFBC35F-32CC-450C-9ABA-983167BABF9D";
name = "6. Nov. 24, 21:45";
shapes = (
{
closed = 1;
nodes = (
(-34,45,o),
(-5,-3,o),
(56,-3,cs),
(143,-3,o),
(227,51,o),
(250,128,cs),
(307,313,o),
(134,281,o),
(172,407,cs),
(185,448,o),
(211,477,o),
(235,477,cs),
(266,477,o),
(280,452,o),
(269,416,cs),
(265,404,o),
(271,396,o),
(282,396,cs),
(315,396,o),
(342,408,o),
(347,424,cs),
(362,473,o),
(325,507,o),
(259,507,cs),
(179,507,o),
(114,462,o),
(91,386,cs),
(35,202,o),
(205,224,o),
(169,107,cs),
(156,65,o),
(111,27,o),
(79,27,cs),
(51,27,o),
(44,64,o),
(59,116,cs),
(63,128,o),
(57,137,o),
(45,137,cs),
(15,137,o),
(-9,127,o),
(-13,113,cs)
);
}
);
width = 334;
}
);
metricLeft = o;
metricRight = o;
metricWidth = c;
unicode = 115;
},
{
glyphname = germandbls;
lastChange = "2025-02-20 20:42:15 +0000";
layers = (
{
anchors = (
{
name = bottom;
pos = (174,0);
},
{
name = top;
pos = (368,637);
}
);
layerId = m003;
shapes = (
{
closed = 1;
nodes = (
(-119,-234,o),
(-77,-202,o),
(-36,-164,cs),
(61,-78,o),
(107,68,o),
(127,148,cs),
(136,180,o),
(143,210,o),
(152,241,cs),
(172,323,o),
(192,402,o),
(216,486,cs),
(239,563,o),
(294,609,o),
(336,608,c),
(366,643,l),
(265,645,o),
(155,562,o),
(120,434,cs),
(107,383,o),
(91,318,o),
(76,254,cs),
(57,175,o),
(37,95,o),
(20,32,cs),
(-3,-55,o),
(-15,-89,o),
(-59,-137,cs),
(-69,-149,o),
(-82,-155,o),
(-91,-155,cs),
(-99,-155,o),
(-102,-151,o),
(-106,-144,cs),
(-110,-138,o),
(-114,-132,o),
(-125,-132,cs),
(-157,-132,o),
(-191,-163,o),
(-202,-205,cs),
(-206,-220,o),
(-191,-234,o),
(-164,-234,cs)
);
},
{
closed = 1;
nodes = (
(333,38,o),
(305,13,o),
(271,13,cs),
(234,13,o),
(220,46,o),
(241,96,c),
(247,106,o),
(244,118,o),
(234,118,cs),
(203,118,o),
(175,101,o),
(166,78,cs),
(143,24,o),
(178,-14,o),
(250,-14,cs),
(329,-14,o),
(401,32,o),
(424,99,cs),
(441,148,o),
(408,179,o),
(380,210,cs),
(350,246,o),
(324,280,o),
(348,340,cs),
(367,387,o),
(394,399,o),
(418,410,cs),
(446,423,o),
(472,436,o),
(475,513,cs),
(478,578,o),
(456,639,o),
(361,643,c),
(331,608,l),
(403,610,o),
(412,551,o),
(409,481,cs),
(407,434,o),
(383,422,o),
(353,407,cs),
(326,394,o),
(292,379,o),
(273,332,cs),
(242,256,o),
(272,216,o),
(304,181,cs),
(332,150,o),
(361,122,o),
(345,74,cs)
);
}
);
width = 469;
}
);
unicode = 223;
},
{
glyphname = t;
lastChange = "2025-02-20 20:43:05 +0000";
layers = (
{
anchors = (
{
name = bottom;
pos = (92,0);
},
{
name = center;
pos = (139,201);
},
{
name = top;
pos = (212,507);
},
{
name = topright;
pos = (364,637);
}
);
layerId = m003;
shapes = (
{
closed = 1;
nodes = (
(113,-14,o),
(177,32,o),
(228,95,c),
(204,114,l),
(172,74,o),
(138,45,o),
(122,45,cs),
(109,45,o),
(105,87,o),
(121,151,cs),
(135,211,o),
(150,275,o),
(165,335,cs),
(184,406,o),
(213,467,o),
(224,507,c),
(194,493,o),
(162,489,o),
(132,487,c),
(101,365,o),
(71,242,o),
(37,121,cs),
(15,41,o),
(36,-14,o),
(75,-14,cs)
);
},
{
closed = 1;
nodes = (
(268,357,l),
(282,406,l),
(102,402,l),
(19,382,l),
(15,369,l)
);
}
);
width = 258;
}
);
metricWidth = i;
unicode = 116;
},
{
glyphname = u;
lastChange = "2025-02-20 20:27:54 +0000";
layers = (
{
anchors = (
{
name = bottom;
pos = (179,0);
},
{
name = ogonek;
pos = (369,10);
},
{
name = top;
pos = (273,402);
},
{
name = topright;
pos = (487,402);
}
);
layerId = m003;
shapes = (
{
closed = 1;
nodes = (
(414,412,o),
(383,408,o),
(346,404,c),
(332,347,o),
(319,297,o),
(308,254,cs),
(275,131,o),
(256,57,o),
(255,30,cs),
(254,-3,o),
(271,-15,o),
(303,-15,cs),
(333,-15,o),
(392,32,o),
(439,95,c),
(414,116,l),
(384,73,o),
(351,43,o),
(336,43,cs),
(324,43,o),
(336,91,o),
(351,152,cs),
(397,333,o),
(381,270,o),
(421,413,c)
);
},
{
closed = 1;
nodes = (
(119,415,o),
(65,366,o),
(20,300,c),
(46,279,l),
(73,319,o),
(108,359,o),
(125,359,cs),
(133,359,o),
(127,315,o),
(107,258,cs),
(61,129,ls),
(34,46,o),
(47,-15,o),
(93,-15,cs),
(173,-15,o),
(273,97,o),
(334,256,c),
(350,374,l),
(290,186,o),
(198,51,o),
(144,51,cs),
(122,51,o),
(128,92,o),
(145,153,cs),
(151,176,o),
(159,201,o),
(167,223,cs),
(181,265,o),
(195,308,o),
(202,353,cs),
(206,401,o),
(187,415,o),
(152,415,cs)
);
}
);
width = 452;
},
{
associatedMasterId = m003;
layerId = "ABB09411-EC44-4418-BAB9-7685FF2C341E";
name = "6. Nov. 24, 23:15";
shapes = (
{
closed = 1;
nodes = (
(418,509,l),
(324,259,o),
(246,61,o),
(277,144,c),
(244,56,o),
(247,-7,o),
(284,-7,cs),
(348,-7,o),
(432,87,o),
(485,219,c),
(455,219,l),
(424,141,o),
(381,86,o),
(352,86,cs),
(340,86,o),
(347,127,o),
(369,186,cs),
(395,258,o),
(447,391,o),
(493,509,c)
);
},
{
closed = 1;
nodes = (
(159,517,o),
(75,423,o),
(22,291,c),
(52,291,l),
(83,369,o),
(126,424,o),
(155,424,cs),
(167,424,o),
(163,383,o),
(138,324,c),
(63,150,l),
(24,60,o),
(42,-7,o),
(94,-7,cs),
(151,-7,o),
(247,87,o),
(327,221,c),
(327,264,l),
(268,159,o),
(177,77,o),
(138,77,cs),
(114,77,o),
(131,134,o),
(160,201,c),
(230,366,l),
(267,453,o),
(260,517,o),
(223,517,cs)
);
}
);
width = 495;
}
);
metricLeft = n;
metricRight = n;
metricWidth = n;
unicode = 117;
},
{
glyphname = v;
lastChange = "2025-02-20 20:24:08 +0000";
layers = (
{
anchors = (
{
name = bottom;
pos = (143,0);
},
{
name = top;
pos = (237,402);
}
);
layerId = m003;
shapes = (
{
closed = 1;
nodes = (
(207,-14,o),
(296,91,o),
(342,224,cs),
(381,339,o),
(361,423,o),
(292,423,cs),
(268,423,o),
(245,406,o),
(238,383,cs),
(231,364,o),
(236,347,o),
(253,347,cs),
(303,347,o),
(316,281,o),
(284,183,cs),
(258,107,o),
(208,44,o),
(161,44,cs),
(113,44,o),
(99,108,o),
(130,204,cs),
(147,254,o),
(159,269,o),
(172,284,cs),
(183,296,o),
(192,305,o),
(200,333,c),
(209,380,o),
(186,414,o),
(148,414,cs),
(120,414,o),
(62,366,o),
(7,300,c),
(33,279,l),
(58,316,o),
(88,343,o),
(103,343,cs),
(124,343,o),
(137,309,o),
(116,258,cs),
(112,247,o),
(99,228,o),
(87,209,cs),
(71,186,o),
(52,158,o),
(47,140,cs),
(18,52,o),
(51,-14,o),
(126,-14,cs)
);
}
);
width = 385;
}
);
metricWidth = o;
unicode = 118;
},
{
glyphname = w;
lastChange = "2025-02-20 20:38:33 +0000";
layers = (
{
anchors = (
{
name = bottom;
pos = (239,0);
},
{
name = top;
pos = (333,402);
}
);
background = {
shapes = (
{
closed = 1;
nodes = (
(208,-12,o),
(303,82,o),
(358,215,cs),
(405,330,o),
(391,411,o),
(324,411,cs),
(301,411,o),
(278,395,o),
(269,372,cs),
(261,353,o),
(265,339,o),
(280,339,cs),
(332,339,o),
(340,270,o),
(301,172,cs),
(270,96,o),
(215,42,o),
(167,42,cs),
(117,42,o),
(107,109,o),
(145,205,cs),
(181,296,o),
(203,275,o),
(224,334,c),
(236,380,o),
(217,412,o),
(180,412,cs),
(153,412,o),
(93,366,o),
(34,300,c),
(55,282,l),
(83,319,o),
(115,345,o),
(130,345,cs),
(153,345,o),
(163,308,o),
(139,257,cs),
(127,231,o),
(74,172,o),
(61,139,cs),
(26,51,o),
(54,-12,o),
(128,-12,cs)
);
}
);
};
layerId = m003;
shapes = (
{
closed = 1;
nodes = (
(417,-14,o),
(499,91,o),
(539,224,cs),
(574,341,o),
(564,423,o),
(495,423,cs),
(471,423,o),
(449,406,o),
(441,383,cs),
(433,362,o),
(440,347,o),
(456,347,cs),
(519,347,o),
(516,280,o),
(481,183,cs),
(454,107,o),
(390,26,o),
(341,26,cs),
(316,26,o),
(308,40,o),
(300,54,c),
(337,87,o),
(463,348,o),
(358,348,cs),
(286,348,o),
(200,125,o),
(247,47,c),
(239,39,o),
(217,37,o),
(209,37,cs),
(156,37,o),
(118,108,o),
(149,204,cs),
(166,253,o),
(179,271,o),
(191,286,cs),
(202,300,o),
(212,311,o),
(220,338,cs),
(228,368,o),
(207,413,o),
(165,413,cs),
(116,413,o),
(92,382,o),
(54,334,cs),
(46,323,o),
(36,311,o),
(26,300,c),
(52,279,l),
(77,316,o),
(99,345,o),
(122,345,cs),
(154,345,o),
(146,300,o),
(135,258,cs),
(131,245,o),
(118,225,o),
(103,204,cs),
(88,182,o),
(70,158,o),
(65,140,cs),
(35,50,o),
(92,-14,o),
(173,-14,cs),
(197,-14,o),
(231,1,o),
(259,24,c),
(278,2,o),
(292,-14,o),
(326,-14,cs)
);
},
{
closed = 1;
nodes = (
(259,125,o),
(266,267,o),
(327,249,cs),
(386,232,o),
(309,114,o),
(284,78,c)
);
}
);
width = 568;
},
{
associatedMasterId = m003;
layerId = "5A38C2F5-2BB2-4579-8BD4-F84C47CF3AA8";
name = "6. Nov. 24, 23:46";
shapes = (
{
closed = 1;
nodes = (
(433,-7,o),
(532,107,o),
(582,268,cs),
(624,408,o),
(610,507,o),
(548,507,cs),
(519,507,o),
(492,485,o),
(483,455,cs),
(474,428,o),
(479,409,o),
(496,409,cs),
(548,409,o),
(561,329,o),
(527,216,cs),
(500,129,o),
(442,67,o),
(388,67,cs),
(372,67,o),
(351,78,o),
(338,93,c),
(359,115,o),
(386,170,o),
(402,224,cs),
(424,295,o),
(413,345,o),
(374,345,cs),
(317,345,o),
(258,275,o),
(231,176,cs),
(223,145,o),
(223,103,o),
(233,74,c),
(222,70,o),
(203,67,o),
(188,67,cs),
(133,67,o),
(118,145,o),
(153,256,cs),
(187,367,o),
(239,424,o),
(253,469,cs),
(260,491,o),
(242,507,o),
(209,507,cs),
(135,507,o),
(62,463,o),
(33,400,cs),
(0,331,l),
(41,338,l),
(63,384,ls),
(71,401,o),
(96,413,o),
(123,413,cs),
(151,413,o),
(164,390,o),
(154,357,cs),
(144,324,o),
(74,216,o),
(61,176,cs),
(29,69,o),
(63,-7,o),
(143,-7,cs),
(174,-7,o),
(220,10,o),
(252,35,c),
(272,10,o),
(309,-7,o),
(343,-7,cs)
);
},
{
closed = 1;
nodes = (
(296,149,o),
(293,207,o),
(313,266,cs),
(322,288,o),
(339,304,o),
(354,304,cs),
(379,304,o),
(381,259,o),
(358,196,cs),
(349,169,o),
(333,140,o),
(320,127,c)
);
}
);
width = 630;
}
);
unicode = 119;
},
{
glyphname = x;
lastChange = "2025-02-20 20:24:05 +0000";
layers = (
{
anchors = (
{
name = bottom;
pos = (154,0);
},
{
name = top;
pos = (276,402);
}
);
background = {
shapes = (
{
closed = 0;
nodes = (
(200,334,ls),
(214,388,o),
(209,412,o),
(175,412,cs),
(138,412,o),
(98,377,o),
(29,300,c),
(50,282,l),
(81,322,o),
(111,345,o),
(124,345,cs),
(140,345,o),
(129,297,o),
(115,257,cs)
);
}
);
};
layerId = m003;
shapes = (
{
closed = 1;
nodes = (
(69,-9,o),
(160,113,o),
(230,207,cs),
(282,277,o),
(328,337,o),
(342,337,cs),
(369,337,o),
(390,324,o),
(389,304,c),
(441,366,l),
(427,394,o),
(404,414,o),
(387,414,cs),
(352,414,o),
(256,290,o),
(180,192,cs),
(129,126,o),
(87,72,o),
(78,72,cs),
(66,72,o),
(51,87,o),
(44,106,c),
(-18,59,l),
(-8,20,o),
(10,-9,o),
(24,-9,cs)
);
},
{
closed = 1;
nodes = (
(295,-9,o),
(361,35,o),
(413,95,c),
(392,116,l),
(355,74,o),
(318,49,o),
(297,49,cs),
(288,49,o),
(274,113,o),
(261,188,cs),
(242,291,o),
(219,414,o),
(185,414,cs),
(153,414,o),
(87,366,o),
(28,300,c),
(52,279,l),
(81,317,o),
(118,344,o),
(137,344,cs),
(150,344,o),
(162,284,o),
(174,213,cs),
(191,112,o),
(212,-9,o),
(257,-9,cs)
);
}
);
width = 429;
}
);
unicode = 120;
},
{
glyphname = y;
lastChange = "2025-02-20 20:26:39 +0000";
layers = (
{
anchors = (
{
name = bottom;
pos = (144,0);
},
{
name = top;
pos = (238,402);
}
);
layerId = m003;
shapes = (
{
closed = 1;
nodes = (
(82,-178,o),
(154,-89,o),
(242,50,cs),
(299,142,o),
(355,256,o),
(378,372,cs),
(385,396,o),
(358,414,o),
(322,414,cs),
(291,414,o),
(270,393,o),
(274,366,cs),
(274,362,o),
(280,351,o),
(283,346,cs),
(316,297,o),
(284,177,o),
(208,60,cs),
(123,-72,o),
(48,-145,o),
(25,-145,cs),
(4,-145,o),
(-15,-124,o),
(-6,-86,cs),
(1,-65,o),
(-6,-55,o),
(-17,-55,cs),
(-48,-55,o),
(-74,-72,o),
(-79,-95,cs),
(-91,-145,o),
(-47,-178,o),
(19,-178,cs)
);
},
{
closed = 1;
nodes = (
(21,279,l),
(49,320,o),
(85,349,o),
(108,349,cs),
(134,349,o),
(167,181,o),
(132,-57,c),
(193,-5,l),
(234,240,o),
(206,414,o),
(126,414,cs),
(98,414,o),
(44,367,o),
(-5,300,c)
);
}
);
width = 393;
}
);
metricWidth = c;
unicode = 121;
},
{
glyphname = z;
lastChange = "2025-02-20 20:24:13 +0000";
layers = (
{
anchors = (
{
name = bottom;
pos = (136,0);
},
{
name = center;
pos = (183,201);
},
{
name = top;
pos = (230,402);
}
);
layerId = m003;
shapes = (
{
closed = 1;
nodes = (
(385,383,l),
(363,401,l),
(-37,13,l),
(-11,-5,l)
);
},
{
closed = 1;
nodes = (
(11,7,o),
(41,19,o),
(69,17,cs),
(75,16,o),
(86,11,o),
(101,5,cs),
(122,-5,o),
(149,-17,o),
(172,-19,cs),
(219,-22,o),
(271,6,o),
(297,47,cs),
(337,117,l),
(316,127,l),
(285,83,ls),
(270,60,o),
(229,48,o),
(201,50,cs),
(190,51,o),
(173,59,o),
(156,66,cs),
(136,75,o),
(114,84,o),
(97,86,cs),
(49,89,o),
(-7,50,o),
(-37,12,c),
(-5,-11,l)
);
},
{
closed = 1;
nodes = (
(86,311,ls),
(99,334,o),
(137,346,o),
(161,344,cs),
(171,344,o),
(188,336,o),
(204,329,cs),
(223,321,o),
(244,311,o),
(259,310,cs),
(304,306,o),
(348,339,o),
(385,383,c),
(356,406,l),
(342,388,o),
(311,377,o),
(286,379,cs),
(281,379,o),
(270,384,o),
(256,390,cs),
(236,400,o),
(209,412,o),
(188,414,cs),
(145,417,o),
(95,389,o),
(71,348,cs),
(33,277,l),
(57,267,l)
);
}
);
width = 366;
}
);
unicode = 122;
},
{
glyphname = zero;
lastChange = "2025-02-19 10:22:13 +0000";
layers = (
{
hints = (
{
horizontal = 1;
place = (401,29);
type = Stem;
},
{
horizontal = 1;
place = (-21,29);
type = Stem;
},
{
place = (393,76);
type = Stem;
},
{
place = (25,76);
type = Stem;
}
);
layerId = m003;
shapes = (
{
closed = 1;
nodes = (
(315,-16,o),
(429,84,o),
(462,225,cs),
(492,354,o),
(423,446,o),
(295,446,cs),
(170,446,o),
(60,354,o),
(30,225,cs),
(-3,84,o),
(62,-16,o),
(188,-16,cs)
);
},
{
closed = 1;
nodes = (
(247,17,o),
(161,52,o),
(116,148,cs),
(76,234,o),
(95,324,o),
(161,365,cs),
(240,413,o),
(324,385,o),
(363,298,cs),
(407,202,o),
(391,105,o),
(323,63,cs)
);
}
);
width = 488;
}
);
unicode = 48;
},
{
glyphname = one;
lastChange = "2025-02-19 10:22:13 +0000";
layers = (
{
hints = (
{
horizontal = 1;
place = (402,25);
type = Stem;
},
{
horizontal = 1;
place = (-13,26);
type = Stem;
},
{
place = (110,67);
type = Stem;
}
);
layerId = m003;
shapes = (
{
closed = 1;
nodes = (
(229,-5,l),
(234,19,l),
(217,23,o),
(195,32,o),
(186,40,cs),
(174,51,o),
(168,77,o),
(173,98,cs),
(180,132,o),
(197,204,o),
(214,279,cs),
(226,331,o),
(248,405,o),
(263,446,c),
(69,396,l),
(63,368,l),
(119,368,o),
(157,344,o),
(150,313,cs),
(136,252,o),
(102,102,o),
(96,79,cs),
(94,70,o),
(78,54,o),
(60,43,cs),
(47,34,o),
(18,24,o),
(-5,20,c),
(-11,-5,l)
);
}
);
width = 290;
}
);
unicode = 49;
},
{
glyphname = two;
lastChange = "2025-02-19 10:22:13 +0000";
layers = (
{
hints = (
{
horizontal = 1;
place = (379,53);
type = Stem;
},
{
horizontal = 1;
place = (-13,57);
type = Stem;
},
{
place = (238,84);
type = Stem;
}
);
layerId = m003;
shapes = (
{
closed = 1;
nodes = (
(326,-5,l),
(397,94,l),
(278,74,o),
(162,63,o),
(48,63,c),
(44,36,l),
(223,158,o),
(361,239,o),
(381,326,cs),
(401,413,o),
(349,446,o),
(274,446,cs),
(200,446,o),
(127,396,o),
(91,355,c),
(113,335,l),
(153,366,o),
(197,384,o),
(224,384,cs),
(271,384,o),
(296,349,o),
(287,310,cs),
(275,258,o),
(207,189,o),
(119,126,cs),
(-37,13,l),
(-35,-5,l)
);
}
);
width = 434;
}
);
unicode = 50;
},
{
glyphname = three;
lastChange = "2025-02-19 10:22:13 +0000";
layers = (
{
hints = (
{
horizontal = 1;
place = (374,54);
type = Stem;
},
{
horizontal = 1;
place = (132,39);
type = Stem;
},
{
horizontal = 1;
place = (-251,69);
type = Stem;
},
{
place = (204,80);
type = Stem;
}
);
layerId = m003;
shapes = (
{
closed = 1;
nodes = (
(88,-199,o),
(239,-63,o),
(269,64,cs),
(285,135,o),
(252,185,o),
(188,185,cs),
(162,185,o),
(124,176,o),
(96,164,cs),
(125,179,o),
(103,175,o),
(43,156,c),
(52,126,l),
(70,134,o),
(97,140,o),
(117,140,cs),
(170,140,o),
(198,96,o),
(184,33,cs),
(164,-50,o),
(49,-154,o),
(-90,-205,c),
(-90,-238,l)
);
},
{
closed = 1;
nodes = (
(65,133,o),
(90,160,o),
(114,171,cs),
(213,216,o),
(302,292,o),
(317,354,cs),
(329,408,o),
(287,446,o),
(230,446,cs),
(185,446,o),
(116,411,o),
(62,361,c),
(73,339,l),
(107,365,o),
(158,384,o),
(185,384,cs),
(215,384,o),
(231,359,o),
(223,324,cs),
(212,277,o),
(138,208,o),
(43,156,c),
(52,126,l)
);
}
);
width = 326;
}
);
unicode = 51;
},
{
glyphname = four;
lastChange = "2025-02-19 10:22:13 +0000";
layers = (
{
hints = (
{
horizontal = 1;
place = (-13,46);
type = Stem;
},
{
horizontal = 1;
place = (407,21);
target = up;
type = BottomGhost;
},
{
place = (300,69);
type = Stem;
}
);
layerId = m003;
shapes = (
{
closed = 1;
nodes = (
(282,-205,l),
(331,8,o),
(380,222,o),
(434,435,c),
(389,435,l),
(-20,53,l),
(-30,9,l),
(117,9,o),
(263,3,o),
(409,-1,c),
(426,75,l),
(289,72,o),
(150,69,o),
(13,69,c),
(9,38,l),
(372,374,l),
(340,352,l),
(287,166,o),
(248,-5,o),
(202,-205,c)
);
}
);
width = 470;
}
);
unicode = 52;
},
{
glyphname = five;
lastChange = "2025-02-19 10:22:13 +0000";
layers = (
{
hints = (
{
horizontal = 1;
place = (363,60);
type = Stem;
},
{
place = (179,69);
type = Stem;
}
);
layerId = m003;
shapes = (
{
closed = 1;
nodes = (
(80,-184,o),
(223,-59,o),
(250,58,cs),
(273,156,o),
(204,257,o),
(85,302,c),
(76,269,l),
(160,406,l),
(112,363,l),
(195,368,o),
(276,364,o),
(355,353,c),
(410,435,l),
(146,435,l),
(36,252,l),
(131,187,o),
(187,94,o),
(171,26,cs),
(153,-53,o),
(39,-147,o),
(-106,-208,c),
(-97,-243,l)
);
}
);
width = 362;
}
);
unicode = 53;
},
{
glyphname = six;
lastChange = "2025-02-19 10:22:13 +0000";
layers = (
{
hints = (
{
horizontal = 1;
place = (304,42);
type = Stem;
},
{
horizontal = 1;
place = (-18,28);
type = Stem;
},
{
horizontal = 1;
place = (672,21);
target = up;
type = BottomGhost;
},
{
place = (338,72);
type = Stem;
},
{
place = (28,79);
type = Stem;
}
);
layerId = m003;
shapes = (
{
closed = 1;
nodes = (
(288,-16,o),
(391,69,o),
(419,190,cs),
(443,294,o),
(385,368,o),
(286,368,cs),
(250,368,o),
(205,352,o),
(178,330,c),
(189,307,l),
(203,316,o),
(227,323,o),
(245,323,cs),
(316,323,o),
(351,258,o),
(329,166,cs),
(310,83,o),
(251,24,o),
(187,24,cs),
(120,24,o),
(95,124,o),
(127,265,cs),
(166,434,o),
(346,592,o),
(565,661,c),
(559,705,l),
(297,621,o),
(81,428,o),
(36,233,cs),
(2,87,o),
(61,-16,o),
(178,-16,cs)
);
}
);
width = 452;
}
);
unicode = 54;
},
{
glyphname = seven;
lastChange = "2025-02-19 10:22:13 +0000";
layers = (
{
hints = (
{
horizontal = 1;
place = (362,58);
type = Stem;
}
);
layerId = m003;
shapes = (
{
closed = 1;
nodes = (
(13,-249,l),
(531,439,l),
(110,439,l),
(47,339,l),
(183,356,o),
(317,366,o),
(450,367,c),
(449,405,l),
(-22,-218,l)
);
}
);
width = 452;
}
);
unicode = 55;
},
{
glyphname = eight;
lastChange = "2025-02-19 10:22:13 +0000";
layers = (
{
hints = (
{
horizontal = 1;
place = (646,39);
type = Stem;
},
{
horizontal = 1;
place = (-22,30);
type = Stem;
},
{
place = (294,56);
type = Stem;
},
{
place = (19,65);
type = Stem;
}
);
layerId = m003;
shapes = (
{
closed = 1;
nodes = (
(258,-16,o),
(350,54,o),
(374,154,c),
(409,308,o),
(159,378,o),
(187,498,cs),
(202,565,o),
(248,611,o),
(301,611,c),
(309,647,l),
(215,647,o),
(132,573,o),
(108,469,cs),
(71,308,o),
(320,227,o),
(297,126,c),
(283,64,o),
(226,20,o),
(159,20,c),
(150,-16,l)
);
},
{
closed = 1;
nodes = (
(159,20,l),
(98,20,o),
(67,72,o),
(84,146,cs),
(98,206,o),
(155,272,o),
(223,308,c),
(198,323,l),
(103,276,o),
(25,197,o),
(7,119,cs),
(-11,40,o),
(48,-16,o),
(150,-16,c)
);
},
{
closed = 1;
nodes = (
(301,611,l),
(362,611,o),
(383,559,o),
(366,485,cs),
(352,426,o),
(297,368,o),
(229,332,c),
(254,317,l),
(349,364,o),
(424,435,o),
(442,512,cs),
(461,592,o),
(411,647,o),
(309,647,c)
);
}
);
width = 416;
}
);
unicode = 56;
},
{
glyphname = nine;
lastChange = "2025-02-19 10:22:13 +0000";
layers = (
{
hints = (
{
horizontal = 1;
place = (398,29);
type = Stem;
},
{
horizontal = 1;
place = (69,43);
type = Stem;
},
{
place = (322,79);
type = Stem;
},
{
place = (24,71);
type = Stem;
}
);
layerId = m003;
shapes = (
{
closed = 1;
nodes = (
(171,446,o),
(70,368,o),
(44,257,cs),
(22,161,o),
(82,94,o),
(181,94,cs),
(217,94,o),
(261,108,o),
(288,128,c),
(276,149,l),
(263,141,o),
(239,135,o),
(221,135,cs),
(150,135,o),
(114,194,o),
(133,279,cs),
(151,355,o),
(209,409,o),
(273,409,cs),
(340,409,o),
(367,317,o),
(337,188,cs),
(302,33,o),
(119,-139,o),
(-99,-203,c),
(-92,-243,l),
(168,-166,o),
(387,38,o),
(428,217,cs),
(459,351,o),
(398,446,o),
(281,446,cs)
);
}
);
width = 452;
}
);
unicode = 57;
},
{
glyphname = period;
lastChange = "2025-02-19 10:24:03 +0000";
layers = (
{
layerId = m003;
shapes = (
{
closed = 1;
nodes = (
(111,0,o),
(151,17,o),
(164,47,cs),
(176,75,o),
(156,105,o),
(121,113,cs),
(85,121,o),
(45,104,o),
(32,75,cs),
(19,46,o),
(38,16,o),
(76,8,c)
);
}
);
width = 304;
}
);
unicode = 46;
},
{
glyphname = comma;
lastChange = "2025-02-19 10:23:34 +0000";
layers = (
{
layerId = m003;
shapes = (
{
closed = 1;
nodes = (
(67,-103,o),
(139,-45,o),
(170,7,cs),
(218,90,o),
(216,162,o),
(164,183,cs),
(136,193,o),
(106,181,o),
(89,152,cs),
(69,119,o),
(72,89,o),
(96,80,cs),
(131,66,o),
(147,23,o),
(120,-23,cs),
(104,-49,o),
(46,-85,o),
(-19,-109,c),
(-18,-132,l)
);
}
);
width = 308;
}
);
unicode = 44;
},
{
glyphname = colon;
lastChange = "2025-02-20 20:32:14 +0000";
layers = (
{
layerId = m003;
shapes = (
{
closed = 1;
nodes = (
(189,300,o),
(229,317,o),
(242,347,cs),
(255,375,o),
(235,405,o),
(199,413,cs),
(163,421,o),
(123,404,o),
(111,375,cs),
(98,346,o),
(117,316,o),
(154,308,c)
);
},
{
closed = 1;
nodes = (
(111,0,o),
(151,17,o),
(164,47,cs),
(176,75,o),
(156,105,o),
(121,113,cs),
(85,121,o),
(45,104,o),
(32,75,cs),
(19,46,o),
(38,16,o),
(76,8,c)
);
}
);
width = 276;
}
);
unicode = 58;
},
{
glyphname = semicolon;
lastChange = "2025-02-20 20:32:33 +0000";
layers = (
{
layerId = m003;
shapes = (
{
closed = 1;
nodes = (
(67,-103,o),
(139,-45,o),
(170,7,cs),
(218,90,o),
(216,162,o),
(164,183,cs),
(136,193,o),
(106,181,o),
(89,152,cs),
(69,119,o),
(72,89,o),
(96,80,cs),
(131,66,o),
(147,23,o),
(120,-23,cs),
(104,-49,o),
(46,-85,o),
(-19,-109,c),
(-18,-132,l)
);
},
{
closed = 1;
nodes = (
(189,300,o),
(229,317,o),
(242,347,cs),
(255,375,o),
(235,405,o),
(199,413,cs),
(163,421,o),
(123,404,o),
(111,375,cs),
(98,346,o),
(117,316,o),
(154,308,c)
);
}
);
width = 303;
}
);
unicode = 59;
},
{
glyphname = hyphen;
lastChange = "2025-02-19 10:22:13 +0000";
layers = (
{
layerId = m003;
shapes = (
{
closed = 1;
nodes = (
(316,223,l),
(343,285,l),
(79,285,l),
(52,223,l)
);
}
);
width = 382;
}
);
unicode = 45;
},
{
glyphname = dieresiscomb;
lastChange = "2025-02-20 20:31:49 +0000";
layers = (
{
anchors = (
{
name = _top;
pos = (212,435);
},
{
name = top;
pos = (289,703);
}
);
layerId = m003;
shapes = (
{
closed = 1;
nodes = (
(206,538,o),
(227,564,o),
(227,597,cs),
(227,630,o),
(206,656,o),
(180,656,cs),
(153,656,o),
(132,630,o),
(132,597,cs),
(132,564,o),
(153,538,o),
(180,538,cs)
);
},
{
closed = 1;
nodes = (
(351,538,o),
(372,564,o),
(372,597,cs),
(372,630,o),
(351,656,o),
(324,656,cs),
(298,656,o),
(277,630,o),
(277,597,cs),
(277,564,o),
(298,538,o),
(324,538,cs)
);
}
);
width = 286;
}
);
unicode = 776;
},
